<svg width="150" height="150" viewBox="0 0 150 150" fill="none" xmlns="http://www.w3.org/2000/svg">
<rect x="34.5" y="34.5" width="115" height="115" rx="5.5" fill="#FFA500" stroke="black"/>
<rect x="17.5" y="17.5" width="115" height="115" rx="5.5" fill="#2B7FFF" stroke="black"/>
<rect x="0.5" y="0.5" width="115" height="115" rx="5.5" fill="white" stroke="black"/>
<path d="M39.736 17.72V25.88C39.736 25.96 39.696 26 39.616 26H38.344C38.264 26 38.224 25.96 38.224 25.88V20.348L36.448 24.464C36.408 24.552 36.352 24.596 36.28 24.596H35.296C35.224 24.596 35.168 24.552 35.128 24.464L33.352 20.348V25.88C33.352 25.96 33.312 26 33.232 26H31.96C31.88 26 31.84 25.96 31.84 25.88V17.72C31.84 17.64 31.88 17.6 31.96 17.6H33.46C33.556 17.6 33.62 17.64 33.652 17.72L35.788 22.652L37.924 17.72C37.956 17.64 38.02 17.6 38.116 17.6H39.616C39.696 17.6 39.736 17.64 39.736 17.72ZM42.1284 21.824H40.9164C40.8604 21.824 40.8324 21.8 40.8324 21.752C40.8324 21.704 40.8364 21.664 40.8444 21.632C40.9644 21.112 41.2484 20.688 41.6964 20.36C42.1444 20.024 42.7124 19.856 43.4004 19.856C44.1764 19.856 44.7964 20.064 45.2604 20.48C45.7244 20.896 45.9564 21.46 45.9564 22.172V24.776C45.9564 25.24 46.0324 25.608 46.1844 25.88C46.2324 25.96 46.2044 26 46.1004 26H44.6364C44.5564 26 44.5164 25.96 44.5164 25.88V25.532C44.0444 25.924 43.4724 26.12 42.8004 26.12C42.1764 26.12 41.6564 25.94 41.2404 25.58C40.8244 25.212 40.6164 24.724 40.6164 24.116C40.6164 23.484 40.8444 22.992 41.3004 22.64C41.7644 22.28 42.3444 22.1 43.0404 22.1C43.4484 22.1 43.9404 22.18 44.5164 22.34V22.172C44.5164 21.86 44.4204 21.612 44.2284 21.428C44.0364 21.244 43.7604 21.152 43.4004 21.152C42.8724 21.152 42.5044 21.34 42.2964 21.716C42.2484 21.788 42.1924 21.824 42.1284 21.824ZM44.5164 23.564C43.9564 23.404 43.4844 23.324 43.1004 23.324C42.7884 23.324 42.5284 23.392 42.3204 23.528C42.1124 23.656 42.0084 23.84 42.0084 24.08C42.0084 24.312 42.1004 24.496 42.2844 24.632C42.4684 24.76 42.7284 24.824 43.0644 24.824C43.4484 24.824 43.7844 24.708 44.0724 24.476C44.3684 24.236 44.5164 23.932 44.5164 23.564ZM49.6923 28.496C48.9883 28.496 48.3883 28.308 47.8923 27.932C47.4043 27.564 47.1323 27.064 47.0763 26.432C47.0763 26.352 47.1163 26.312 47.1963 26.312H48.3963C48.4683 26.312 48.5083 26.352 48.5163 26.432C48.6203 26.944 49.0363 27.2 49.7643 27.2C50.2443 27.2 50.6003 27.06 50.8323 26.78C51.0723 26.5 51.1923 26.112 51.1923 25.616V25.4C50.7283 25.784 50.1843 25.976 49.5603 25.976C48.7203 25.976 48.0403 25.696 47.5203 25.136C47.0083 24.568 46.7523 23.828 46.7523 22.916C46.7523 22.012 47.0083 21.276 47.5203 20.708C48.0323 20.14 48.6963 19.856 49.5123 19.856C50.1763 19.856 50.7363 20.056 51.1923 20.456V20.096C51.1923 20.016 51.2323 19.976 51.3123 19.976H52.5123C52.5923 19.976 52.6323 20.016 52.6323 20.096V25.4C52.6323 26.432 52.3803 27.204 51.8763 27.716C51.3723 28.236 50.6443 28.496 49.6923 28.496ZM50.8803 24.188C51.1523 23.86 51.2883 23.436 51.2883 22.916C51.2883 22.396 51.1523 21.972 50.8803 21.644C50.6163 21.316 50.2563 21.152 49.8003 21.152C49.3443 21.152 48.9763 21.32 48.6963 21.656C48.4243 21.984 48.2883 22.404 48.2883 22.916C48.2883 23.428 48.4243 23.852 48.6963 24.188C48.9763 24.516 49.3443 24.68 49.8003 24.68C50.2563 24.68 50.6163 24.516 50.8803 24.188ZM53.5835 25.88V20.096C53.5835 20.016 53.6235 19.976 53.7035 19.976H54.9035C54.9835 19.976 55.0235 20.016 55.0235 20.096V25.88C55.0235 25.96 54.9835 26 54.9035 26H53.7035C53.6235 26 53.5835 25.96 53.5835 25.88ZM53.4995 19.088V17.72C53.4995 17.64 53.5395 17.6 53.6195 17.6H54.9875C55.0675 17.6 55.1075 17.64 55.1075 17.72V19.088C55.1075 19.168 55.0675 19.208 54.9875 19.208H53.6195C53.5395 19.208 53.4995 19.168 53.4995 19.088ZM58.8176 21.152C58.3296 21.152 57.9376 21.316 57.6416 21.644C57.3536 21.964 57.2096 22.412 57.2096 22.988C57.2096 23.564 57.3536 24.016 57.6416 24.344C57.9376 24.664 58.3296 24.824 58.8176 24.824C59.5456 24.824 60.0216 24.512 60.2456 23.888C60.2696 23.816 60.3256 23.78 60.4136 23.78H61.5896C61.6456 23.78 61.6736 23.804 61.6736 23.852C61.6736 23.9 61.6696 23.94 61.6616 23.972C61.5656 24.572 61.2616 25.08 60.7496 25.496C60.2376 25.912 59.6016 26.12 58.8416 26.12C57.9376 26.12 57.1856 25.832 56.5856 25.256C55.9936 24.672 55.6976 23.916 55.6976 22.988C55.6976 22.06 55.9936 21.308 56.5856 20.732C57.1856 20.148 57.9376 19.856 58.8416 19.856C59.6016 19.856 60.2376 20.064 60.7496 20.48C61.2616 20.896 61.5656 21.404 61.6616 22.004C61.6696 22.036 61.6736 22.076 61.6736 22.124C61.6736 22.172 61.6456 22.196 61.5896 22.196H60.4136C60.3256 22.196 60.2696 22.16 60.2456 22.088C60.0216 21.464 59.5456 21.152 58.8176 21.152ZM66.9848 22.46V25.88C66.9848 25.96 66.9448 26 66.8648 26H65.5928C65.5128 26 65.4728 25.96 65.4728 25.88V17.72C65.4728 17.64 65.5128 17.6 65.5928 17.6H70.9208C71.0008 17.6 71.0408 17.64 71.0408 17.72V18.872C71.0408 18.952 71.0008 18.992 70.9208 18.992H66.9848V21.068H70.5368C70.6168 21.068 70.6568 21.108 70.6568 21.188V22.34C70.6568 22.42 70.6168 22.46 70.5368 22.46H66.9848ZM76.9816 20.096V25.88C76.9816 25.96 76.9416 26 76.8616 26H75.6616C75.5816 26 75.5416 25.96 75.5416 25.88V25.448C74.9976 25.896 74.3936 26.12 73.7296 26.12C73.0736 26.12 72.5576 25.94 72.1816 25.58C71.8136 25.212 71.6296 24.716 71.6296 24.092V20.096C71.6296 20.016 71.6696 19.976 71.7496 19.976H72.9496C73.0296 19.976 73.0696 20.016 73.0696 20.096V23.576C73.0696 24.408 73.4136 24.824 74.1016 24.824C74.5176 24.824 74.8616 24.66 75.1336 24.332C75.4056 23.996 75.5416 23.492 75.5416 22.82V20.096C75.5416 20.016 75.5816 19.976 75.6616 19.976H76.8616C76.9416 19.976 76.9816 20.016 76.9816 20.096ZM78.085 25.88V20.096C78.085 20.016 78.125 19.976 78.205 19.976H79.405C79.485 19.976 79.525 20.016 79.525 20.096V20.528C80.069 20.08 80.673 19.856 81.337 19.856C81.993 19.856 82.505 20.04 82.873 20.408C83.249 20.768 83.437 21.26 83.437 21.884V25.88C83.437 25.96 83.397 26 83.317 26H82.117C82.037 26 81.997 25.96 81.997 25.88V22.4C81.997 21.568 81.653 21.152 80.965 21.152C80.549 21.152 80.205 21.32 79.933 21.656C79.661 21.984 79.525 22.484 79.525 23.156V25.88C79.525 25.96 79.485 26 79.405 26H78.205C78.125 26 78.085 25.96 78.085 25.88ZM90.1178 17.72V25.88C90.1178 25.96 90.0778 26 89.9978 26H88.7978C88.7178 26 88.6778 25.96 88.6778 25.88V25.508C88.1738 25.916 87.5978 26.12 86.9498 26.12C86.1338 26.12 85.4738 25.84 84.9698 25.28C84.4658 24.712 84.2138 23.948 84.2138 22.988C84.2138 22.028 84.4658 21.268 84.9698 20.708C85.4738 20.14 86.1338 19.856 86.9498 19.856C87.5978 19.856 88.1738 20.056 88.6778 20.456V17.72C88.6778 17.64 88.7178 17.6 88.7978 17.6H89.9978C90.0778 17.6 90.1178 17.64 90.1178 17.72ZM88.3418 24.308C88.6138 23.956 88.7498 23.516 88.7498 22.988C88.7498 22.46 88.6138 22.024 88.3418 21.68C88.0698 21.328 87.7018 21.152 87.2378 21.152C86.7738 21.152 86.4058 21.328 86.1338 21.68C85.8618 22.024 85.7258 22.46 85.7258 22.988C85.7258 23.516 85.8618 23.956 86.1338 24.308C86.4058 24.652 86.7738 24.824 87.2378 24.824C87.7018 24.824 88.0698 24.652 88.3418 24.308ZM96.2123 24.212C96.2123 24.78 95.9723 25.24 95.4923 25.592C95.0203 25.944 94.4083 26.12 93.6562 26.12C92.8963 26.12 92.2763 25.928 91.7963 25.544C91.3243 25.16 91.0643 24.644 91.0163 23.996C91.0163 23.916 91.0563 23.876 91.1363 23.876H92.3483C92.4203 23.876 92.4603 23.916 92.4683 23.996C92.5723 24.548 92.9843 24.824 93.7043 24.824C94.0083 24.824 94.2603 24.772 94.4603 24.668C94.6683 24.564 94.7723 24.42 94.7723 24.236C94.7723 23.892 94.2683 23.636 93.2603 23.468C91.8603 23.228 91.1603 22.648 91.1603 21.728C91.1603 21.104 91.3963 20.636 91.8683 20.324C92.3403 20.012 92.9003 19.856 93.5483 19.856C94.2683 19.856 94.8563 20.032 95.3123 20.384C95.7683 20.728 96.0203 21.168 96.0683 21.704C96.0683 21.784 96.0283 21.824 95.9483 21.824H94.7363C94.6563 21.824 94.6003 21.784 94.5683 21.704C94.3843 21.304 94.0283 21.104 93.5003 21.104C93.2443 21.104 93.0283 21.156 92.8523 21.26C92.6843 21.356 92.6003 21.5 92.6003 21.692C92.6003 21.86 92.7003 22.004 92.9003 22.124C93.1083 22.236 93.4963 22.34 94.0643 22.436C94.7763 22.556 95.3123 22.752 95.6723 23.024C96.0323 23.288 96.2123 23.684 96.2123 24.212Z" fill="black"/>
<path d="M11.78 73.9V67.1C11.78 67.0333 11.8133 67 11.88 67H12.72C12.7867 67 12.82 67.0333 12.82 67.1V73H16.31C16.3767 73 16.41 73.0333 16.41 73.1V73.9C16.41 73.9667 16.3767 74 16.31 74H11.88C11.8133 74 11.78 73.9667 11.78 73.9ZM18.0124 70.51H17.1724C17.1258 70.51 17.1024 70.49 17.1024 70.45C17.1024 70.41 17.1058 70.3767 17.1124 70.35C17.2191 69.9167 17.4524 69.5633 17.8124 69.29C18.1724 69.0167 18.6324 68.88 19.1924 68.88C19.8191 68.88 20.3158 69.0467 20.6824 69.38C21.0558 69.7067 21.2424 70.16 21.2424 70.74V72.98C21.2424 73.3667 21.3058 73.6733 21.4324 73.9C21.4724 73.9667 21.4491 74 21.3624 74H20.3624C20.2958 74 20.2624 73.9667 20.2624 73.9V73.53C19.8691 73.91 19.3491 74.1 18.7024 74.1C18.2024 74.1 17.7758 73.9567 17.4224 73.67C17.0691 73.3767 16.8924 72.9767 16.8924 72.47C16.8924 71.9367 17.0858 71.5233 17.4724 71.23C17.8591 70.93 18.3458 70.78 18.9324 70.78C19.3458 70.78 19.7891 70.85 20.2624 70.99V70.81C20.2624 70.4967 20.1691 70.2467 19.9824 70.06C19.7958 69.8733 19.5324 69.78 19.1924 69.78C18.6724 69.78 18.3258 69.9933 18.1524 70.42C18.1324 70.48 18.0858 70.51 18.0124 70.51ZM20.2624 71.89C19.8024 71.75 19.3758 71.68 18.9824 71.68C18.6758 71.68 18.4224 71.7433 18.2224 71.87C18.0291 71.9967 17.9324 72.1833 17.9324 72.43C17.9324 72.6567 18.0091 72.8367 18.1624 72.97C18.3224 73.0967 18.5491 73.16 18.8424 73.16C19.2424 73.16 19.5791 73.0467 19.8524 72.82C20.1258 72.5933 20.2624 72.2833 20.2624 71.89ZM26.1838 72.53C26.1838 73.0167 25.9904 73.4 25.6038 73.68C25.2238 73.96 24.7204 74.1 24.0938 74.1C23.4871 74.1 22.9871 73.95 22.5938 73.65C22.2004 73.3433 21.9838 72.93 21.9438 72.41C21.9438 72.3433 21.9771 72.31 22.0438 72.31H22.8838C22.9438 72.31 22.9771 72.3433 22.9838 72.41C23.0704 72.91 23.4504 73.16 24.1238 73.16C24.8038 73.16 25.1438 72.95 25.1438 72.53C25.1438 72.3567 25.0404 72.22 24.8338 72.12C24.6338 72.0133 24.2904 71.92 23.8038 71.84C23.2038 71.74 22.7638 71.5733 22.4838 71.34C22.2104 71.1067 22.0738 70.7867 22.0738 70.38C22.0738 69.8867 22.2638 69.5133 22.6438 69.26C23.0238 69.0067 23.4838 68.88 24.0238 68.88C24.5971 68.88 25.0604 69.02 25.4138 69.3C25.7738 69.5733 25.9771 69.9333 26.0238 70.38C26.0238 70.4467 25.9904 70.48 25.9238 70.48H25.0738C25.0271 70.48 24.9938 70.4467 24.9738 70.38C24.8471 70.0067 24.5138 69.82 23.9738 69.82C23.7138 69.82 23.4938 69.8633 23.3138 69.95C23.1404 70.03 23.0538 70.1567 23.0538 70.33C23.0538 70.5233 23.1471 70.6767 23.3338 70.79C23.5271 70.8967 23.8738 70.9933 24.3738 71.08C24.9671 71.1867 25.4171 71.3467 25.7238 71.56C26.0304 71.7667 26.1838 72.09 26.1838 72.53ZM28.4256 68.98H30.0156C30.0823 68.98 30.1156 69.0133 30.1156 69.08V69.82C30.1156 69.8867 30.0823 69.92 30.0156 69.92H28.4256V72.34C28.4256 72.8867 28.6756 73.16 29.1756 73.16C29.489 73.16 29.789 73.1067 30.0756 73C30.0956 72.9933 30.1156 72.99 30.1356 72.99C30.189 72.99 30.2156 73.02 30.2156 73.08V73.76C30.2156 73.8533 30.189 73.91 30.1356 73.93C29.8356 74.0433 29.4856 74.1 29.0856 74.1C28.579 74.1 28.179 73.9633 27.8856 73.69C27.5923 73.41 27.4456 73.0167 27.4456 72.51V69.92H26.5656C26.499 69.92 26.4656 69.8867 26.4656 69.82V69.08C26.4656 69.0133 26.499 68.98 26.5656 68.98H27.4456V67.54C27.4456 67.4733 27.479 67.44 27.5456 67.44H28.3256C28.3923 67.44 28.4256 67.4733 28.4256 67.54V68.98ZM33.1537 73.9V73.28C33.1537 73.1867 33.1903 73.11 33.2637 73.05L35.9937 70.47C36.4337 70.0567 36.6537 69.5767 36.6537 69.03C36.6537 68.6967 36.5437 68.4233 36.3237 68.21C36.1037 67.99 35.8103 67.88 35.4437 67.88C35.0637 67.88 34.7603 67.9933 34.5337 68.22C34.307 68.44 34.1837 68.73 34.1637 69.09C34.157 69.19 34.1137 69.24 34.0337 69.24H33.2837C33.2037 69.24 33.1637 69.19 33.1637 69.09C33.177 68.47 33.3937 67.95 33.8137 67.53C34.2403 67.11 34.7837 66.9 35.4437 66.9C36.117 66.9 36.657 67.0967 37.0637 67.49C37.4703 67.8767 37.6737 68.3767 37.6737 68.99C37.6737 69.4433 37.5937 69.8333 37.4337 70.16C37.2803 70.48 37.027 70.8033 36.6737 71.13L34.6637 73.02H37.7837C37.8503 73.02 37.8837 73.0533 37.8837 73.12V73.9C37.8837 73.9667 37.8503 74 37.7837 74H33.2537C33.187 74 33.1537 73.9667 33.1537 73.9ZM38.8268 68.8C38.8268 68.22 39.0335 67.76 39.4468 67.42C39.8668 67.0733 40.3768 66.9 40.9768 66.9C41.5768 66.9 42.0835 67.0733 42.4968 67.42C42.9168 67.76 43.1268 68.22 43.1268 68.8C43.1268 69.4133 42.8601 69.9067 42.3268 70.28C43.0068 70.6867 43.3468 71.2533 43.3468 71.98C43.3468 72.6 43.1268 73.11 42.6868 73.51C42.2468 73.9033 41.6768 74.1 40.9768 74.1C40.2768 74.1 39.7068 73.9033 39.2668 73.51C38.8268 73.11 38.6068 72.6 38.6068 71.98C38.6068 71.2533 38.9468 70.6867 39.6268 70.28C39.0935 69.9067 38.8268 69.4133 38.8268 68.8ZM39.9968 71.12C39.7501 71.3267 39.6268 71.61 39.6268 71.97C39.6268 72.33 39.7501 72.6133 39.9968 72.82C40.2435 73.02 40.5701 73.12 40.9768 73.12C41.3835 73.12 41.7101 73.02 41.9568 72.82C42.2035 72.6133 42.3268 72.33 42.3268 71.97C42.3268 71.61 42.2035 71.3267 41.9568 71.12C41.7101 70.9067 41.3835 70.8 40.9768 70.8C40.5701 70.8 40.2435 70.9067 39.9968 71.12ZM40.1368 68.13C39.9168 68.3033 39.8068 68.54 39.8068 68.84C39.8068 69.14 39.9135 69.3833 40.1268 69.57C40.3401 69.75 40.6235 69.84 40.9768 69.84C41.3301 69.84 41.6135 69.75 41.8268 69.57C42.0401 69.3833 42.1468 69.14 42.1468 68.84C42.1468 68.54 42.0368 68.3033 41.8168 68.13C41.5968 67.95 41.3168 67.86 40.9768 67.86C40.6368 67.86 40.3568 67.95 40.1368 68.13ZM51.2513 67.1V73.9C51.2513 73.9667 51.2179 74 51.1513 74H50.3713C50.3046 74 50.2713 73.9667 50.2713 73.9V73.53C49.8779 73.91 49.3646 74.1 48.7313 74.1C48.0513 74.1 47.5046 73.8633 47.0913 73.39C46.6779 72.9167 46.4713 72.2833 46.4713 71.49C46.4713 70.6967 46.6779 70.0633 47.0913 69.59C47.5046 69.1167 48.0513 68.88 48.7313 68.88C49.2846 68.88 49.7979 69.0733 50.2713 69.46V67.1C50.2713 67.0333 50.3046 67 50.3713 67H51.1513C51.2179 67 51.2513 67.0333 51.2513 67.1ZM49.9513 72.7C50.2179 72.3867 50.3513 71.9833 50.3513 71.49C50.3513 70.9967 50.2179 70.5967 49.9513 70.29C49.6913 69.9767 49.3513 69.82 48.9313 69.82C48.4979 69.82 48.1513 69.9767 47.8913 70.29C47.6379 70.5967 47.5113 70.9967 47.5113 71.49C47.5113 71.9833 47.6379 72.3867 47.8913 72.7C48.1513 73.0067 48.4979 73.16 48.9313 73.16C49.3513 73.16 49.6913 73.0067 49.9513 72.7ZM53.1316 70.51H52.2916C52.2449 70.51 52.2216 70.49 52.2216 70.45C52.2216 70.41 52.2249 70.3767 52.2316 70.35C52.3382 69.9167 52.5716 69.5633 52.9316 69.29C53.2916 69.0167 53.7516 68.88 54.3116 68.88C54.9382 68.88 55.4349 69.0467 55.8016 69.38C56.1749 69.7067 56.3616 70.16 56.3616 70.74V72.98C56.3616 73.3667 56.4249 73.6733 56.5516 73.9C56.5916 73.9667 56.5682 74 56.4816 74H55.4816C55.4149 74 55.3816 73.9667 55.3816 73.9V73.53C54.9882 73.91 54.4682 74.1 53.8216 74.1C53.3216 74.1 52.8949 73.9567 52.5416 73.67C52.1882 73.3767 52.0116 72.9767 52.0116 72.47C52.0116 71.9367 52.2049 71.5233 52.5916 71.23C52.9782 70.93 53.4649 70.78 54.0516 70.78C54.4649 70.78 54.9082 70.85 55.3816 70.99V70.81C55.3816 70.4967 55.2882 70.2467 55.1016 70.06C54.9149 69.8733 54.6516 69.78 54.3116 69.78C53.7916 69.78 53.4449 69.9933 53.2716 70.42C53.2516 70.48 53.2049 70.51 53.1316 70.51ZM55.3816 71.89C54.9216 71.75 54.4949 71.68 54.1016 71.68C53.7949 71.68 53.5416 71.7433 53.3416 71.87C53.1482 71.9967 53.0516 72.1833 53.0516 72.43C53.0516 72.6567 53.1282 72.8367 53.2816 72.97C53.4416 73.0967 53.6682 73.16 53.9616 73.16C54.3616 73.16 54.6982 73.0467 54.9716 72.82C55.2449 72.5933 55.3816 72.2833 55.3816 71.89ZM57.6459 68.98C57.7126 68.98 57.7559 69.0133 57.7759 69.08L59.1159 72.55L60.2359 69.08C60.2559 69.0133 60.2993 68.98 60.3659 68.98H61.2559C61.3093 68.98 61.3359 69.0033 61.3359 69.05C61.3359 69.0767 61.3326 69.1 61.3259 69.12L59.4959 74.49C59.2959 75.0833 59.0526 75.4967 58.7659 75.73C58.4793 75.9633 58.1426 76.08 57.7559 76.08C57.4226 76.08 57.1393 76.0267 56.9059 75.92C56.8393 75.88 56.8059 75.8267 56.8059 75.76V75.02C56.8059 74.9533 56.8326 74.92 56.8859 74.92C56.9193 74.92 57.0126 74.9567 57.1659 75.03C57.3259 75.1033 57.4859 75.14 57.6459 75.14C57.8993 75.14 58.1026 75.0533 58.2559 74.88C58.4093 74.7067 58.5459 74.4033 58.6659 73.97L56.6659 69.14C56.6526 69.1 56.6459 69.0733 56.6459 69.06C56.6459 69.0067 56.6726 68.98 56.7259 68.98H57.6459ZM65.7697 72.53C65.7697 73.0167 65.5764 73.4 65.1897 73.68C64.8097 73.96 64.3064 74.1 63.6797 74.1C63.073 74.1 62.573 73.95 62.1797 73.65C61.7864 73.3433 61.5697 72.93 61.5297 72.41C61.5297 72.3433 61.563 72.31 61.6297 72.31H62.4697C62.5297 72.31 62.563 72.3433 62.5697 72.41C62.6564 72.91 63.0364 73.16 63.7097 73.16C64.3897 73.16 64.7297 72.95 64.7297 72.53C64.7297 72.3567 64.6264 72.22 64.4197 72.12C64.2197 72.0133 63.8764 71.92 63.3897 71.84C62.7897 71.74 62.3497 71.5733 62.0697 71.34C61.7964 71.1067 61.6597 70.7867 61.6597 70.38C61.6597 69.8867 61.8497 69.5133 62.2297 69.26C62.6097 69.0067 63.0697 68.88 63.6097 68.88C64.183 68.88 64.6464 69.02 64.9997 69.3C65.3597 69.5733 65.563 69.9333 65.6097 70.38C65.6097 70.4467 65.5764 70.48 65.5097 70.48H64.6597C64.613 70.48 64.5797 70.4467 64.5597 70.38C64.433 70.0067 64.0997 69.82 63.5597 69.82C63.2997 69.82 63.0797 69.8633 62.8997 69.95C62.7264 70.03 62.6397 70.1567 62.6397 70.33C62.6397 70.5233 62.733 70.6767 62.9197 70.79C63.113 70.8967 63.4597 70.9933 63.9597 71.08C64.553 71.1867 65.003 71.3467 65.3097 71.56C65.6164 71.7667 65.7697 72.09 65.7697 72.53Z" fill="black"/>
<path d="M11.64 97.9V97.28C11.64 97.1867 11.6767 97.11 11.75 97.05L14.48 94.47C14.92 94.0567 15.14 93.5767 15.14 93.03C15.14 92.6967 15.03 92.4233 14.81 92.21C14.59 91.99 14.2967 91.88 13.93 91.88C13.55 91.88 13.2467 91.9933 13.02 92.22C12.7933 92.44 12.67 92.73 12.65 93.09C12.6433 93.19 12.6 93.24 12.52 93.24H11.77C11.69 93.24 11.65 93.19 11.65 93.09C11.6633 92.47 11.88 91.95 12.3 91.53C12.7267 91.11 13.27 90.9 13.93 90.9C14.6033 90.9 15.1433 91.0967 15.55 91.49C15.9567 91.8767 16.16 92.3767 16.16 92.99C16.16 93.4433 16.08 93.8333 15.92 94.16C15.7667 94.48 15.5133 94.8033 15.16 95.13L13.15 97.02H16.27C16.3367 97.02 16.37 97.0533 16.37 97.12V97.9C16.37 97.9667 16.3367 98 16.27 98H11.74C11.6733 98 11.64 97.9667 11.64 97.9ZM17.0257 94.81C17.0257 93.51 17.259 92.5333 17.7257 91.88C18.1924 91.2267 18.8224 90.9 19.6157 90.9C20.2224 90.9 20.7257 91.0633 21.1257 91.39C21.5257 91.7167 21.7624 92.1533 21.8357 92.7C21.8357 92.7667 21.799 92.8 21.7257 92.8H20.9257C20.8724 92.8 20.8357 92.7667 20.8157 92.7C20.609 92.1267 20.209 91.84 19.6157 91.84C19.2224 91.84 18.889 92.02 18.6157 92.38C18.349 92.74 18.179 93.3067 18.1057 94.08C18.559 93.68 19.1024 93.48 19.7357 93.48C20.4024 93.48 20.949 93.6867 21.3757 94.1C21.8024 94.5133 22.0157 95.0767 22.0157 95.79C22.0157 96.49 21.7757 97.05 21.2957 97.47C20.8224 97.89 20.2557 98.1 19.5957 98.1C18.8357 98.1 18.2157 97.8367 17.7357 97.31C17.2624 96.7767 17.0257 95.9433 17.0257 94.81ZM18.6057 94.83C18.359 95.0767 18.2357 95.3967 18.2357 95.79C18.2357 96.1833 18.359 96.5033 18.6057 96.75C18.859 96.9967 19.1957 97.12 19.6157 97.12C20.0357 97.12 20.369 96.9967 20.6157 96.75C20.869 96.5033 20.9957 96.1833 20.9957 95.79C20.9957 95.3967 20.869 95.0767 20.6157 94.83C20.369 94.5833 20.0357 94.46 19.6157 94.46C19.1957 94.46 18.859 94.5833 18.6057 94.83ZM22.2855 91.88V91.1C22.2855 91.0333 22.3189 91 22.3855 91H26.7855C26.8522 91 26.8855 91.0333 26.8855 91.1V91.68C26.8855 91.7533 26.8689 91.8367 26.8355 91.93L24.4755 97.93C24.4555 97.9767 24.4189 98 24.3655 98H23.5455C23.4789 98 23.4455 97.9733 23.4455 97.92C23.4455 97.9 23.4522 97.8767 23.4655 97.85L25.7655 91.98H22.3855C22.3189 91.98 22.2855 91.9467 22.2855 91.88Z" fill="#FF005C"/>
<path d="M32.072 97.16C32.7454 97.16 33.1987 96.91 33.432 96.41C33.4654 96.35 33.512 96.32 33.572 96.32H34.422C34.4687 96.32 34.492 96.3433 34.492 96.39C34.492 96.4167 34.4854 96.45 34.472 96.49C34.072 97.5633 33.272 98.1 32.072 98.1C31.3254 98.1 30.712 97.8567 30.232 97.37C29.7587 96.8767 29.522 96.25 29.522 95.49C29.522 94.7367 29.762 94.1133 30.242 93.62C30.722 93.1267 31.3287 92.88 32.062 92.88C32.8287 92.88 33.442 93.1367 33.902 93.65C34.362 94.1567 34.592 94.78 34.592 95.52V95.71C34.592 95.7767 34.5587 95.81 34.492 95.81H30.562C30.6154 96.23 30.7754 96.56 31.042 96.8C31.3087 97.04 31.652 97.16 32.072 97.16ZM32.062 93.82C31.7287 93.82 31.4254 93.9133 31.152 94.1C30.8787 94.28 30.6954 94.55 30.602 94.91H33.522C33.442 94.5567 33.2687 94.2867 33.002 94.1C32.742 93.9133 32.4287 93.82 32.062 93.82ZM35.8177 93.05L36.8577 94.53L37.8977 93.05C37.9311 93.0033 37.9777 92.98 38.0377 92.98H38.9677C39.0144 92.98 39.0377 93.0033 39.0377 93.05C39.0377 93.0633 39.0311 93.0833 39.0177 93.11L37.4377 95.37L39.1977 97.87C39.2177 97.8967 39.2277 97.9233 39.2277 97.95C39.2277 97.9833 39.2077 98 39.1677 98H38.1877C38.1411 98 38.0944 97.9667 38.0477 97.9L36.8577 96.2L35.6677 97.9C35.6211 97.9667 35.5744 98 35.5277 98H34.5477C34.5077 98 34.4877 97.9833 34.4877 97.95C34.4877 97.93 34.4977 97.9033 34.5177 97.87L36.2677 95.37L34.6977 93.11C34.6844 93.0833 34.6777 93.0633 34.6777 93.05C34.6777 93.0033 34.7011 92.98 34.7477 92.98H35.6777C35.7377 92.98 35.7844 93.0033 35.8177 93.05ZM41.6795 97.16C42.3528 97.16 42.8061 96.91 43.0395 96.41C43.0728 96.35 43.1195 96.32 43.1795 96.32H44.0295C44.0761 96.32 44.0995 96.3433 44.0995 96.39C44.0995 96.4167 44.0928 96.45 44.0795 96.49C43.6795 97.5633 42.8795 98.1 41.6795 98.1C40.9328 98.1 40.3195 97.8567 39.8395 97.37C39.3661 96.8767 39.1295 96.25 39.1295 95.49C39.1295 94.7367 39.3695 94.1133 39.8495 93.62C40.3295 93.1267 40.9361 92.88 41.6695 92.88C42.4361 92.88 43.0495 93.1367 43.5095 93.65C43.9695 94.1567 44.1995 94.78 44.1995 95.52V95.71C44.1995 95.7767 44.1661 95.81 44.0995 95.81H40.1695C40.2228 96.23 40.3828 96.56 40.6495 96.8C40.9161 97.04 41.2595 97.16 41.6795 97.16ZM41.6695 93.82C41.3361 93.82 41.0328 93.9133 40.7595 94.1C40.4861 94.28 40.3028 94.55 40.2095 94.91H43.1295C43.0495 94.5567 42.8761 94.2867 42.6095 94.1C42.3495 93.9133 42.0361 93.82 41.6695 93.82ZM47.3277 93.82C46.8677 93.82 46.501 93.9667 46.2277 94.26C45.961 94.5467 45.8277 94.9567 45.8277 95.49C45.8277 96.0233 45.961 96.4367 46.2277 96.73C46.501 97.0167 46.8677 97.16 47.3277 97.16C47.6277 97.16 47.891 97.09 48.1177 96.95C48.351 96.8033 48.5143 96.5867 48.6077 96.3C48.6277 96.24 48.6743 96.21 48.7477 96.21H49.5577C49.6043 96.21 49.6277 96.23 49.6277 96.27C49.6277 96.31 49.6243 96.3433 49.6177 96.37C49.5177 96.8767 49.2643 97.2933 48.8577 97.62C48.4577 97.94 47.9477 98.1 47.3277 98.1C46.5743 98.1 45.961 97.8567 45.4877 97.37C45.021 96.8833 44.7877 96.2567 44.7877 95.49C44.7877 94.7233 45.021 94.0967 45.4877 93.61C45.961 93.1233 46.5743 92.88 47.3277 92.88C47.9477 92.88 48.4577 93.0433 48.8577 93.37C49.2643 93.69 49.5177 94.1033 49.6177 94.61C49.6243 94.6367 49.6277 94.67 49.6277 94.71C49.6277 94.75 49.6043 94.77 49.5577 94.77H48.7477C48.6743 94.77 48.6277 94.74 48.6077 94.68C48.5143 94.3933 48.351 94.18 48.1177 94.04C47.891 93.8933 47.6277 93.82 47.3277 93.82ZM54.6143 93.08V97.9C54.6143 97.9667 54.581 98 54.5143 98H53.7343C53.6676 98 53.6343 97.9667 53.6343 97.9V97.45C53.181 97.8833 52.651 98.1 52.0443 98.1C51.4976 98.1 51.071 97.9467 50.7643 97.64C50.4643 97.3333 50.3143 96.9033 50.3143 96.35V93.08C50.3143 93.0133 50.3476 92.98 50.4143 92.98H51.1943C51.261 92.98 51.2943 93.0133 51.2943 93.08V96.06C51.2943 96.7933 51.6276 97.16 52.2943 97.16C52.6743 97.16 52.991 97.0133 53.2443 96.72C53.5043 96.42 53.6343 95.9967 53.6343 95.45V93.08C53.6343 93.0133 53.6676 92.98 53.7343 92.98H54.5143C54.581 92.98 54.6143 93.0133 54.6143 93.08ZM57.2284 92.98H58.8184C58.885 92.98 58.9184 93.0133 58.9184 93.08V93.82C58.9184 93.8867 58.885 93.92 58.8184 93.92H57.2284V96.34C57.2284 96.8867 57.4784 97.16 57.9784 97.16C58.2917 97.16 58.5917 97.1067 58.8784 97C58.8984 96.9933 58.9184 96.99 58.9384 96.99C58.9917 96.99 59.0184 97.02 59.0184 97.08V97.76C59.0184 97.8533 58.9917 97.91 58.9384 97.93C58.6384 98.0433 58.2884 98.1 57.8884 98.1C57.3817 98.1 56.9817 97.9633 56.6884 97.69C56.395 97.41 56.2484 97.0167 56.2484 96.51V93.92H55.3684C55.3017 93.92 55.2684 93.8867 55.2684 93.82V93.08C55.2684 93.0133 55.3017 92.98 55.3684 92.98H56.2484V91.54C56.2484 91.4733 56.2817 91.44 56.3484 91.44H57.1284C57.195 91.44 57.2284 91.4733 57.2284 91.54V92.98ZM61.8806 97.16C62.554 97.16 63.0073 96.91 63.2406 96.41C63.274 96.35 63.3206 96.32 63.3806 96.32H64.2306C64.2773 96.32 64.3006 96.3433 64.3006 96.39C64.3006 96.4167 64.294 96.45 64.2806 96.49C63.8806 97.5633 63.0806 98.1 61.8806 98.1C61.134 98.1 60.5206 97.8567 60.0406 97.37C59.5673 96.8767 59.3306 96.25 59.3306 95.49C59.3306 94.7367 59.5706 94.1133 60.0506 93.62C60.5306 93.1267 61.1373 92.88 61.8706 92.88C62.6373 92.88 63.2506 93.1367 63.7106 93.65C64.1706 94.1567 64.4006 94.78 64.4006 95.52V95.71C64.4006 95.7767 64.3673 95.81 64.3006 95.81H60.3706C60.424 96.23 60.584 96.56 60.8506 96.8C61.1173 97.04 61.4606 97.16 61.8806 97.16ZM61.8706 93.82C61.5373 93.82 61.234 93.9133 60.9606 94.1C60.6873 94.28 60.504 94.55 60.4106 94.91H63.3306C63.2506 94.5567 63.0773 94.2867 62.8106 94.1C62.5506 93.9133 62.2373 93.82 61.8706 93.82ZM69.7688 91.1V97.9C69.7688 97.9667 69.7355 98 69.6688 98H68.8888C68.8222 98 68.7888 97.9667 68.7888 97.9V97.53C68.3955 97.91 67.8822 98.1 67.2488 98.1C66.5688 98.1 66.0222 97.8633 65.6088 97.39C65.1955 96.9167 64.9888 96.2833 64.9888 95.49C64.9888 94.6967 65.1955 94.0633 65.6088 93.59C66.0222 93.1167 66.5688 92.88 67.2488 92.88C67.8022 92.88 68.3155 93.0733 68.7888 93.46V91.1C68.7888 91.0333 68.8222 91 68.8888 91H69.6688C69.7355 91 69.7688 91.0333 69.7688 91.1ZM68.4688 96.7C68.7355 96.3867 68.8688 95.9833 68.8688 95.49C68.8688 94.9967 68.7355 94.5967 68.4688 94.29C68.2088 93.9767 67.8688 93.82 67.4488 93.82C67.0155 93.82 66.6688 93.9767 66.4088 94.29C66.1555 94.5967 66.0288 94.9967 66.0288 95.49C66.0288 95.9833 66.1555 96.3867 66.4088 96.7C66.6688 97.0067 67.0155 97.16 67.4488 97.16C67.8688 97.16 68.2088 97.0067 68.4688 96.7ZM74.7147 92.98H76.3047C76.3714 92.98 76.4047 93.0133 76.4047 93.08V93.82C76.4047 93.8867 76.3714 93.92 76.3047 93.92H74.7147V96.34C74.7147 96.8867 74.9647 97.16 75.4647 97.16C75.778 97.16 76.078 97.1067 76.3647 97C76.3847 96.9933 76.4047 96.99 76.4247 96.99C76.478 96.99 76.5047 97.02 76.5047 97.08V97.76C76.5047 97.8533 76.478 97.91 76.4247 97.93C76.1247 98.0433 75.7747 98.1 75.3747 98.1C74.868 98.1 74.468 97.9633 74.1747 97.69C73.8814 97.41 73.7347 97.0167 73.7347 96.51V93.92H72.8547C72.788 93.92 72.7547 93.8867 72.7547 93.82V93.08C72.7547 93.0133 72.788 92.98 72.8547 92.98H73.7347V91.54C73.7347 91.4733 73.768 91.44 73.8347 91.44H74.6147C74.6814 91.44 74.7147 91.4733 74.7147 91.54V92.98ZM80.4367 93.22V94.01C80.4367 94.0833 80.4101 94.12 80.3567 94.12C80.3434 94.12 80.3201 94.1133 80.2867 94.1C79.9067 93.9133 79.5567 93.82 79.2367 93.82C78.8967 93.82 78.6234 93.9467 78.4167 94.2C78.2101 94.4533 78.1067 94.8167 78.1067 95.29V97.9C78.1067 97.9667 78.0734 98 78.0067 98H77.2267C77.1601 98 77.1267 97.9667 77.1267 97.9V93.08C77.1267 93.0133 77.1601 92.98 77.2267 92.98H78.0067C78.0734 92.98 78.1067 93.0133 78.1067 93.08V93.47C78.4801 93.0767 78.9201 92.88 79.4267 92.88C79.7334 92.88 80.0301 92.9333 80.3167 93.04C80.3967 93.0733 80.4367 93.1333 80.4367 93.22ZM81.739 94.51H80.899C80.8523 94.51 80.829 94.49 80.829 94.45C80.829 94.41 80.8323 94.3767 80.839 94.35C80.9457 93.9167 81.179 93.5633 81.539 93.29C81.899 93.0167 82.359 92.88 82.919 92.88C83.5457 92.88 84.0423 93.0467 84.409 93.38C84.7823 93.7067 84.969 94.16 84.969 94.74V96.98C84.969 97.3667 85.0323 97.6733 85.159 97.9C85.199 97.9667 85.1757 98 85.089 98H84.089C84.0223 98 83.989 97.9667 83.989 97.9V97.53C83.5957 97.91 83.0757 98.1 82.429 98.1C81.929 98.1 81.5023 97.9567 81.149 97.67C80.7957 97.3767 80.619 96.9767 80.619 96.47C80.619 95.9367 80.8123 95.5233 81.199 95.23C81.5857 94.93 82.0723 94.78 82.659 94.78C83.0723 94.78 83.5157 94.85 83.989 94.99V94.81C83.989 94.4967 83.8957 94.2467 83.709 94.06C83.5223 93.8733 83.259 93.78 82.919 93.78C82.399 93.78 82.0523 93.9933 81.879 94.42C81.859 94.48 81.8123 94.51 81.739 94.51ZM83.989 95.89C83.529 95.75 83.1023 95.68 82.709 95.68C82.4023 95.68 82.149 95.7433 81.949 95.87C81.7557 95.9967 81.659 96.1833 81.659 96.43C81.659 96.6567 81.7357 96.8367 81.889 96.97C82.049 97.0967 82.2757 97.16 82.569 97.16C82.969 97.16 83.3057 97.0467 83.579 96.82C83.8523 96.5933 83.989 96.2833 83.989 95.89ZM90.472 91.1V97.9C90.472 97.9667 90.4386 98 90.372 98H89.592C89.5253 98 89.492 97.9667 89.492 97.9V97.53C89.0986 97.91 88.5853 98.1 87.952 98.1C87.272 98.1 86.7253 97.8633 86.312 97.39C85.8986 96.9167 85.692 96.2833 85.692 95.49C85.692 94.6967 85.8986 94.0633 86.312 93.59C86.7253 93.1167 87.272 92.88 87.952 92.88C88.5053 92.88 89.0186 93.0733 89.492 93.46V91.1C89.492 91.0333 89.5253 91 89.592 91H90.372C90.4386 91 90.472 91.0333 90.472 91.1ZM89.172 96.7C89.4386 96.3867 89.572 95.9833 89.572 95.49C89.572 94.9967 89.4386 94.5967 89.172 94.29C88.912 93.9767 88.572 93.82 88.152 93.82C87.7186 93.82 87.372 93.9767 87.112 94.29C86.8586 94.5967 86.732 94.9967 86.732 95.49C86.732 95.9833 86.8586 96.3867 87.112 96.7C87.372 97.0067 87.7186 97.16 88.152 97.16C88.572 97.16 88.912 97.0067 89.172 96.7ZM93.8123 97.16C94.4856 97.16 94.9389 96.91 95.1723 96.41C95.2056 96.35 95.2523 96.32 95.3123 96.32H96.1623C96.2089 96.32 96.2323 96.3433 96.2323 96.39C96.2323 96.4167 96.2256 96.45 96.2123 96.49C95.8123 97.5633 95.0123 98.1 93.8123 98.1C93.0656 98.1 92.4523 97.8567 91.9723 97.37C91.4989 96.8767 91.2623 96.25 91.2623 95.49C91.2623 94.7367 91.5023 94.1133 91.9823 93.62C92.4623 93.1267 93.0689 92.88 93.8023 92.88C94.5689 92.88 95.1823 93.1367 95.6423 93.65C96.1023 94.1567 96.3323 94.78 96.3323 95.52V95.71C96.3323 95.7767 96.2989 95.81 96.2323 95.81H92.3023C92.3556 96.23 92.5156 96.56 92.7823 96.8C93.0489 97.04 93.3923 97.16 93.8123 97.16ZM93.8023 93.82C93.4689 93.82 93.1656 93.9133 92.8923 94.1C92.6189 94.28 92.4356 94.55 92.3423 94.91H95.2623C95.1823 94.5567 95.0089 94.2867 94.7423 94.1C94.4823 93.9133 94.1689 93.82 93.8023 93.82ZM101.09 96.53C101.09 97.0167 100.897 97.4 100.51 97.68C100.13 97.96 99.6267 98.1 99 98.1C98.3933 98.1 97.8933 97.95 97.5 97.65C97.1067 97.3433 96.89 96.93 96.85 96.41C96.85 96.3433 96.8833 96.31 96.95 96.31H97.79C97.85 96.31 97.8833 96.3433 97.89 96.41C97.9767 96.91 98.3567 97.16 99.03 97.16C99.71 97.16 100.05 96.95 100.05 96.53C100.05 96.3567 99.9467 96.22 99.74 96.12C99.54 96.0133 99.1967 95.92 98.71 95.84C98.11 95.74 97.67 95.5733 97.39 95.34C97.1167 95.1067 96.98 94.7867 96.98 94.38C96.98 93.8867 97.17 93.5133 97.55 93.26C97.93 93.0067 98.39 92.88 98.93 92.88C99.5033 92.88 99.9667 93.02 100.32 93.3C100.68 93.5733 100.883 93.9333 100.93 94.38C100.93 94.4467 100.897 94.48 100.83 94.48H99.98C99.9333 94.48 99.9 94.4467 99.88 94.38C99.7533 94.0067 99.42 93.82 98.88 93.82C98.62 93.82 98.4 93.8633 98.22 93.95C98.0467 94.03 97.96 94.1567 97.96 94.33C97.96 94.5233 98.0533 94.6767 98.24 94.79C98.4333 94.8967 98.78 94.9933 99.28 95.08C99.8733 95.1867 100.323 95.3467 100.63 95.56C100.937 95.7667 101.09 96.09 101.09 96.53Z" fill="black"/>
<path d="M12.392 58.76V56.864C12.392 56.64 12.48 56.456 12.656 56.312L18.944 50.432C20.048 49.392 20.6 48.344 20.6 47.288C20.6 46.536 20.368 45.936 19.904 45.488C19.44 45.024 18.816 44.792 18.032 44.792C17.264 44.792 16.632 45.016 16.136 45.464C15.64 45.912 15.36 46.544 15.296 47.36C15.28 47.6 15.176 47.72 14.984 47.72H12.704C12.512 47.72 12.416 47.6 12.416 47.36C12.448 45.856 12.984 44.584 14.024 43.544C15.064 42.488 16.4 41.96 18.032 41.96C19.712 41.96 21.048 42.44 22.04 43.4C23.032 44.344 23.528 45.584 23.528 47.12C23.528 48.16 23.32 49.064 22.904 49.832C22.504 50.584 21.832 51.408 20.888 52.304L16.784 56.168H23.792C23.952 56.168 24.032 56.248 24.032 56.408V58.76C24.032 58.92 23.952 59 23.792 59H12.632C12.472 59 12.392 58.92 12.392 58.76ZM29.8587 51.2V48.896C29.8587 48.72 29.9467 48.632 30.1227 48.632H31.4427C33.1867 48.632 34.0587 47.976 34.0587 46.664C34.0587 46.072 33.8587 45.616 33.4587 45.296C33.0587 44.96 32.4907 44.792 31.7547 44.792C31.0987 44.792 30.5307 44.976 30.0507 45.344C29.5707 45.696 29.2587 46.216 29.1147 46.904C29.0827 47.096 28.9787 47.192 28.8027 47.192H26.5227C26.3147 47.192 26.2107 47.056 26.2107 46.784C26.3067 45.392 26.8747 44.24 27.9147 43.328C28.9707 42.416 30.2187 41.96 31.6587 41.96C33.2107 41.96 34.4827 42.368 35.4747 43.184C36.4827 44 36.9867 45.08 36.9867 46.424C36.9867 47.896 36.3707 49.056 35.1387 49.904C35.8267 50.224 36.4267 50.728 36.9387 51.416C37.4507 52.104 37.7067 53 37.7067 54.104C37.7067 55.704 37.1547 56.96 36.0507 57.872C34.9467 58.784 33.4827 59.24 31.6587 59.24C29.9947 59.24 28.5947 58.752 27.4587 57.776C26.3227 56.784 25.7147 55.448 25.6347 53.768C25.6507 53.496 25.7547 53.36 25.9467 53.36H28.2027C28.4107 53.36 28.5227 53.464 28.5387 53.672C28.6347 54.632 28.9787 55.328 29.5707 55.76C30.1787 56.192 30.9227 56.408 31.8027 56.408C32.6827 56.408 33.3867 56.184 33.9147 55.736C34.4587 55.288 34.7307 54.648 34.7307 53.816C34.7307 53.08 34.4507 52.504 33.8907 52.088C33.3307 51.672 32.5147 51.464 31.4427 51.464H30.1227C29.9467 51.464 29.8587 51.376 29.8587 51.2ZM40.2225 55.928H42.8145C42.9745 55.928 43.0545 56.008 43.0545 56.168V58.76C43.0545 58.92 42.9745 59 42.8145 59H40.2225C40.0625 59 39.9825 58.92 39.9825 58.76V56.168C39.9825 56.008 40.0625 55.928 40.2225 55.928ZM45.185 51.344C45.185 48.208 45.753 45.864 46.889 44.312C48.025 42.744 49.553 41.96 51.473 41.96C52.977 41.96 54.217 42.376 55.193 43.208C56.185 44.024 56.769 45.112 56.945 46.472C56.945 46.632 56.857 46.712 56.681 46.712H54.281C54.153 46.712 54.065 46.632 54.017 46.472C53.649 45.352 52.801 44.792 51.473 44.792C49.649 44.792 48.561 46.296 48.209 49.304C49.297 48.536 50.521 48.152 51.881 48.152C53.481 48.152 54.793 48.656 55.817 49.664C56.857 50.672 57.377 52.016 57.377 53.696C57.377 55.376 56.793 56.72 55.625 57.728C54.457 58.736 53.057 59.24 51.425 59.24C49.569 59.24 48.065 58.584 46.913 57.272C45.761 55.96 45.185 53.984 45.185 51.344ZM49.481 51.752C48.953 52.248 48.689 52.896 48.689 53.696C48.689 54.496 48.953 55.152 49.481 55.664C50.009 56.16 50.705 56.408 51.569 56.408C52.433 56.408 53.129 56.16 53.657 55.664C54.185 55.152 54.449 54.496 54.449 53.696C54.449 52.896 54.185 52.248 53.657 51.752C53.129 51.24 52.433 50.984 51.569 50.984C50.705 50.984 50.009 51.24 49.481 51.752ZM66.919 43.376C67.767 44.16 68.191 45.2 68.191 46.496C68.191 47.792 67.767 48.832 66.919 49.616C66.087 50.4 65.079 50.792 63.895 50.792C62.711 50.792 61.695 50.4 60.847 49.616C60.015 48.832 59.599 47.792 59.599 46.496C59.599 45.2 60.015 44.16 60.847 43.376C61.695 42.592 62.711 42.2 63.895 42.2C65.079 42.2 66.087 42.592 66.919 43.376ZM65.311 48.128C65.711 47.76 65.911 47.216 65.911 46.496C65.911 45.776 65.711 45.24 65.311 44.888C64.911 44.52 64.439 44.336 63.895 44.336C63.351 44.336 62.879 44.52 62.479 44.888C62.079 45.24 61.879 45.776 61.879 46.496C61.879 47.216 62.079 47.76 62.479 48.128C62.879 48.48 63.351 48.656 63.895 48.656C64.439 48.656 64.911 48.48 65.311 48.128ZM77.143 51.584C77.991 52.368 78.415 53.408 78.415 54.704C78.415 56 77.991 57.04 77.143 57.824C76.311 58.608 75.303 59 74.119 59C72.935 59 71.919 58.608 71.071 57.824C70.239 57.04 69.823 56 69.823 54.704C69.823 53.408 70.239 52.368 71.071 51.584C71.919 50.8 72.935 50.408 74.119 50.408C75.303 50.408 76.311 50.8 77.143 51.584ZM75.535 56.336C75.935 55.968 76.135 55.424 76.135 54.704C76.135 53.984 75.935 53.448 75.535 53.096C75.135 52.728 74.663 52.544 74.119 52.544C73.575 52.544 73.103 52.728 72.703 53.096C72.303 53.448 72.103 53.984 72.103 54.704C72.103 55.424 72.303 55.968 72.703 56.336C73.103 56.688 73.575 56.864 74.119 56.864C74.663 56.864 75.135 56.688 75.535 56.336ZM61.591 57.632L75.007 42.272C75.103 42.144 75.215 42.144 75.343 42.272L76.399 43.232C76.511 43.344 76.527 43.456 76.447 43.568L63.031 58.928C62.935 59.056 62.823 59.056 62.695 58.928L61.639 57.968C61.527 57.856 61.511 57.744 61.591 57.632Z" fill="#2AD870"/>
<g clip-path="url(#clip0_347_45)">
<path d="M25.2479 19.034C25.1856 18.8412 25.0673 18.6714 24.908 18.5462C24.7487 18.4209 24.5558 18.346 24.3538 18.3309L22.3311 18.1715L21.5541 16.3276C21.4753 16.1423 21.3437 15.9844 21.1758 15.8734C21.0078 15.7623 20.8109 15.7031 20.6096 15.7031C20.4083 15.7031 20.2114 15.7623 20.0435 15.8734C19.8755 15.9844 19.7439 16.1423 19.6651 16.3276L18.8881 18.1692L16.8661 18.3286C16.6643 18.3437 16.4717 18.4185 16.3126 18.5434C16.1536 18.6684 16.0353 18.8379 15.9729 19.0303C15.9105 19.2227 15.9068 19.4294 15.9622 19.6239C16.0177 19.8184 16.1298 19.9921 16.2842 20.1227L17.8176 21.4176L17.3489 23.3512C17.3021 23.5473 17.3144 23.7528 17.384 23.942C17.4537 24.1311 17.5777 24.2955 17.7404 24.4144C17.9032 24.5333 18.0974 24.6015 18.2988 24.6104C18.5002 24.6193 18.6997 24.5686 18.8723 24.4645L20.6096 23.4174L22.3434 24.461C22.516 24.5651 22.7155 24.6158 22.9169 24.6069C23.1183 24.598 23.3125 24.5298 23.4753 24.4109C23.638 24.2919 23.762 24.1276 23.8317 23.9384C23.9013 23.7493 23.9136 23.5438 23.8668 23.3477L23.3981 21.4141L24.9315 20.1192C25.086 19.9902 25.1986 19.8181 25.255 19.6248C25.3113 19.4315 25.3089 19.2259 25.2479 19.034ZM22.1624 20.6248C22.0625 20.7091 21.9881 20.8196 21.9476 20.9438C21.907 21.068 21.9018 21.201 21.9327 21.328L22.2842 22.7875L20.9711 21.9965C20.8615 21.931 20.7362 21.8963 20.6084 21.8963C20.4807 21.8963 20.3554 21.931 20.2458 21.9965L18.9327 22.7875L19.2842 21.328C19.315 21.2009 19.3097 21.0679 19.2691 20.9437C19.2284 20.8195 19.1539 20.7091 19.054 20.6248L17.9143 19.6569L19.4278 19.5397C19.5562 19.5295 19.6794 19.4842 19.7839 19.4088C19.8884 19.3334 19.9701 19.2307 20.0202 19.112L20.6096 17.7069L21.202 19.1096C21.2521 19.2283 21.3338 19.331 21.4383 19.4065C21.5427 19.4819 21.6659 19.5272 21.7944 19.5373L23.3073 19.6545L22.1624 20.6248ZM12.9045 25.8116C12.7724 25.9437 12.5933 26.0179 12.4065 26.0179C12.2197 26.0179 12.0405 25.9437 11.9084 25.8116C11.7764 25.6795 11.7021 25.5003 11.7021 25.3135C11.7021 25.1267 11.7764 24.9476 11.9084 24.8155L14.9413 21.7832C15.0733 21.6512 15.2525 21.5769 15.4393 21.5769C15.6261 21.5769 15.8053 21.6512 15.9374 21.7832C16.0694 21.9153 16.1437 22.0945 16.1437 22.2813C16.1437 22.4681 16.0694 22.6472 15.9374 22.7793L12.9045 25.8116ZM16.6305 25.3094C16.6961 25.3747 16.7481 25.4524 16.7836 25.5378C16.8191 25.6233 16.8373 25.7149 16.8373 25.8075C16.8373 25.9 16.8191 25.9916 16.7836 26.0771C16.7481 26.1626 16.6961 26.2402 16.6305 26.3055L13.842 29.0946C13.7766 29.16 13.699 29.2119 13.6135 29.2473C13.5281 29.2827 13.4365 29.3009 13.344 29.3009C13.2515 29.3009 13.1599 29.2827 13.0745 29.2473C12.989 29.2119 12.9114 29.16 12.8459 29.0946C12.7805 29.0292 12.7287 28.9515 12.6933 28.8661C12.6579 28.7806 12.6396 28.689 12.6396 28.5965C12.6396 28.504 12.6579 28.4124 12.6933 28.327C12.7287 28.2415 12.7805 28.1639 12.8459 28.0985L15.635 25.31C15.7002 25.2445 15.7776 25.1924 15.8629 25.1568C15.9481 25.1213 16.0396 25.1028 16.132 25.1026C16.2244 25.1024 16.3159 25.1204 16.4014 25.1556C16.4868 25.1908 16.5645 25.2424 16.6299 25.3077L16.6305 25.3094ZM20.2891 25.8696C20.3547 25.9349 20.4067 26.0125 20.4422 26.098C20.4776 26.1834 20.4959 26.2751 20.4959 26.3676C20.4959 26.4602 20.4776 26.5518 20.4422 26.6373C20.4067 26.7227 20.3547 26.8003 20.2891 26.8657L18.0625 29.0922C17.9305 29.2243 17.7513 29.2985 17.5645 29.2985C17.3777 29.2985 17.1985 29.2243 17.0665 29.0922C16.9344 28.9601 16.8602 28.781 16.8602 28.5942C16.8602 28.4074 16.9344 28.2282 17.0665 28.0961L19.293 25.8696C19.3582 25.804 19.4357 25.7519 19.5211 25.7163C19.6064 25.6807 19.6979 25.6623 19.7904 25.6622C19.8829 25.662 19.9745 25.6801 20.0599 25.7154C20.1454 25.7507 20.2231 25.8025 20.2885 25.8678L20.2891 25.8696Z" fill="#9072FF"/>
</g>
<defs>
<clipPath id="clip0_347_45">
<rect width="15" height="15" fill="white" transform="translate(11 15)"/>
</clipPath>
</defs>
</svg>
