<svg width="821" height="113" viewBox="0 0 821 113" fill="none" xmlns="http://www.w3.org/2000/svg">
<path d="M30.02 92.0625C24.0617 92.0625 18.8742 91.25 14.4575 89.625C10.0409 88 6.62419 85.625 4.20752 82.5C1.79085 79.375 0.58252 75.5833 0.58252 71.125V71C0.58252 67.0417 1.60335 63.6042 3.64502 60.6875C5.72835 57.7292 8.99919 55.4167 13.4575 53.75C17.9575 52.0833 23.7909 51.1667 30.9575 51L69.2075 50.1875V61.875L34.77 62.6875C30.7284 62.7708 27.7909 63.4375 25.9575 64.6875C24.1659 65.8958 23.27 67.5625 23.27 69.6875V69.75C23.27 72.4583 24.5409 74.4792 27.0825 75.8125C29.6242 77.1042 32.9784 77.75 37.145 77.75C41.27 77.75 44.8534 77.2083 47.895 76.125C50.9784 75 53.3534 73.4167 55.02 71.375C56.6867 69.2917 57.52 66.875 57.52 64.125V48.75C57.52 45.2083 56.1242 42.4583 53.3325 40.5C50.5825 38.5 46.6242 37.5 41.4575 37.5C36.9575 37.5 33.395 38.2292 30.77 39.6875C28.145 41.1042 26.4784 42.9792 25.77 45.3125L25.5825 45.875H3.89502L4.02002 45.125C4.81169 40.625 6.74919 36.6667 9.83252 33.25C12.9575 29.7917 17.2075 27.0833 22.5825 25.125C27.9575 23.1667 34.4159 22.1875 41.9575 22.1875C49.9992 22.1875 56.9159 23.25 62.7075 25.375C68.4992 27.4583 72.9367 30.4792 76.02 34.4375C79.145 38.3542 80.7075 43.0625 80.7075 48.5625V91H57.52V80.0625H57.145C55.5617 82.5625 53.4367 84.7083 50.77 86.5C48.145 88.2917 45.0617 89.6667 41.52 90.625C38.02 91.5833 34.1867 92.0625 30.02 92.0625ZM91.49 91V0.8125H114.678V91H91.49ZM125.523 112.875V23.8125H148.648V36.1875H149.085C150.752 33.4375 152.939 31.0208 155.648 28.9375C158.356 26.8125 161.564 25.1667 165.273 24C168.981 22.8333 173.148 22.25 177.773 22.25C184.898 22.25 191.127 23.7083 196.46 26.625C201.793 29.5 205.918 33.5833 208.835 38.875C211.793 44.125 213.273 50.2917 213.273 57.375V57.5C213.273 64.5417 211.793 70.7083 208.835 76C205.918 81.25 201.793 85.3333 196.46 88.25C191.168 91.1667 184.96 92.625 177.835 92.625C173.21 92.625 169.023 92.0417 165.273 90.875C161.564 89.7083 158.356 88.0833 155.648 86C152.939 83.9167 150.752 81.5 149.085 78.75H148.648V112.875H125.523ZM169.335 76.0625C173.502 76.0625 177.106 75.3125 180.148 73.8125C183.231 72.3125 185.585 70.1875 187.21 67.4375C188.877 64.6458 189.71 61.3125 189.71 57.4375V57.3125C189.71 53.4792 188.877 50.1667 187.21 47.375C185.585 44.5833 183.231 42.4583 180.148 41C177.106 39.5 173.502 38.75 169.335 38.75C165.168 38.75 161.523 39.5208 158.398 41.0625C155.314 42.5625 152.918 44.7083 151.21 47.5C149.502 50.25 148.648 53.5417 148.648 57.375V57.4375C148.648 61.2708 149.502 64.5833 151.21 67.375C152.918 70.125 155.314 72.2708 158.398 73.8125C161.523 75.3125 165.168 76.0625 169.335 76.0625ZM221.68 91V0.8125H244.868V37.0625H245.243C247.618 32.3958 251.159 28.75 255.868 26.125C260.618 23.5 266.347 22.1875 273.055 22.1875C279.43 22.1875 284.868 23.375 289.368 25.75C293.868 28.125 297.326 31.5833 299.743 36.125C302.159 40.625 303.368 46.0625 303.368 52.4375V91H280.243V57.25C280.243 51.375 278.805 46.9167 275.93 43.875C273.097 40.7917 268.93 39.25 263.43 39.25C259.68 39.25 256.409 40.0208 253.618 41.5625C250.826 43.0625 248.659 45.2083 247.118 48C245.618 50.75 244.868 54 244.868 57.75V91H221.68ZM340.65 92.0625C334.692 92.0625 329.504 91.25 325.088 89.625C320.671 88 317.254 85.625 314.838 82.5C312.421 79.375 311.213 75.5833 311.213 71.125V71C311.213 67.0417 312.233 63.6042 314.275 60.6875C316.358 57.7292 319.629 55.4167 324.088 53.75C328.588 52.0833 334.421 51.1667 341.588 51L379.838 50.1875V61.875L345.4 62.6875C341.358 62.7708 338.421 63.4375 336.588 64.6875C334.796 65.8958 333.9 67.5625 333.9 69.6875V69.75C333.9 72.4583 335.171 74.4792 337.713 75.8125C340.254 77.1042 343.608 77.75 347.775 77.75C351.9 77.75 355.483 77.2083 358.525 76.125C361.608 75 363.983 73.4167 365.65 71.375C367.317 69.2917 368.15 66.875 368.15 64.125V48.75C368.15 45.2083 366.754 42.4583 363.963 40.5C361.213 38.5 357.254 37.5 352.088 37.5C347.588 37.5 344.025 38.2292 341.4 39.6875C338.775 41.1042 337.108 42.9792 336.4 45.3125L336.213 45.875H314.525L314.65 45.125C315.442 40.625 317.379 36.6667 320.463 33.25C323.588 29.7917 327.838 27.0833 333.213 25.125C338.588 23.1667 345.046 22.1875 352.588 22.1875C360.629 22.1875 367.546 23.25 373.338 25.375C379.129 27.4583 383.567 30.4792 386.65 34.4375C389.775 38.3542 391.338 43.0625 391.338 48.5625V91H368.15V80.0625H367.775C366.192 82.5625 364.067 84.7083 361.4 86.5C358.775 88.2917 355.692 89.6667 352.15 90.625C348.65 91.5833 344.817 92.0625 340.65 92.0625ZM463.933 112.875V78.8125H463.495C461.87 81.5625 459.683 83.9792 456.933 86.0625C454.224 88.1042 451.016 89.7083 447.308 90.875C443.599 92.0417 439.412 92.625 434.745 92.625C427.662 92.625 421.453 91.1667 416.12 88.25C410.787 85.3333 406.641 81.25 403.683 76C400.766 70.7083 399.308 64.5208 399.308 57.4375V57.375C399.308 50.2917 400.787 44.125 403.745 38.875C406.703 33.5833 410.849 29.5 416.183 26.625C421.516 23.7083 427.745 22.25 434.87 22.25C439.495 22.25 443.641 22.8542 447.308 24.0625C451.016 25.2292 454.224 26.8542 456.933 28.9375C459.641 31.0208 461.828 33.4375 463.495 36.1875H463.933V23.8125H487.058V112.875H463.933ZM443.308 76C447.474 76 451.099 75.25 454.183 73.75C457.266 72.25 459.662 70.1042 461.37 67.3125C463.078 64.5208 463.933 61.2292 463.933 57.4375V57.3125C463.933 53.5208 463.078 50.25 461.37 47.5C459.662 44.7083 457.266 42.5625 454.183 41.0625C451.099 39.5625 447.474 38.8125 443.308 38.8125C439.099 38.8125 435.453 39.5625 432.37 41.0625C429.328 42.5208 426.974 44.6458 425.308 47.4375C423.683 50.1875 422.87 53.4792 422.87 57.3125V57.4375C422.87 61.3125 423.683 64.6458 425.308 67.4375C426.974 70.1875 429.328 72.3125 432.37 73.8125C435.453 75.2708 439.099 76 443.308 76ZM527.09 92.625C520.882 92.625 515.528 91.4792 511.028 89.1875C506.569 86.8542 503.132 83.4792 500.715 79.0625C498.298 74.6042 497.09 69.2083 497.09 62.875V23.8125H520.278V58.0625C520.278 63.6875 521.653 68 524.403 71C527.194 74 531.257 75.5 536.59 75.5C539.382 75.5 541.903 75.0833 544.153 74.25C546.403 73.4167 548.34 72.2083 549.965 70.625C551.632 69.0417 552.903 67.125 553.778 64.875C554.694 62.5833 555.153 60 555.153 57.125V23.8125H578.278V91H555.153V77.875H554.715C553.173 80.875 551.09 83.5 548.465 85.75C545.84 87.9583 542.736 89.6667 539.153 90.875C535.569 92.0417 531.548 92.625 527.09 92.625ZM615.935 92.0625C609.977 92.0625 604.789 91.25 600.372 89.625C595.956 88 592.539 85.625 590.122 82.5C587.706 79.375 586.497 75.5833 586.497 71.125V71C586.497 67.0417 587.518 63.6042 589.56 60.6875C591.643 57.7292 594.914 55.4167 599.372 53.75C603.872 52.0833 609.706 51.1667 616.872 51L655.122 50.1875V61.875L620.685 62.6875C616.643 62.7708 613.706 63.4375 611.872 64.6875C610.081 65.8958 609.185 67.5625 609.185 69.6875V69.75C609.185 72.4583 610.456 74.4792 612.997 75.8125C615.539 77.1042 618.893 77.75 623.06 77.75C627.185 77.75 630.768 77.2083 633.81 76.125C636.893 75 639.268 73.4167 640.935 71.375C642.602 69.2917 643.435 66.875 643.435 64.125V48.75C643.435 45.2083 642.039 42.4583 639.247 40.5C636.497 38.5 632.539 37.5 627.372 37.5C622.872 37.5 619.31 38.2292 616.685 39.6875C614.06 41.1042 612.393 42.9792 611.685 45.3125L611.497 45.875H589.81L589.935 45.125C590.727 40.625 592.664 36.6667 595.747 33.25C598.872 29.7917 603.122 27.0833 608.497 25.125C613.872 23.1667 620.331 22.1875 627.872 22.1875C635.914 22.1875 642.831 23.25 648.622 25.375C654.414 27.4583 658.852 30.4792 661.935 34.4375C665.06 38.3542 666.622 43.0625 666.622 48.5625V91H643.435V80.0625H643.06C641.477 82.5625 639.352 84.7083 636.685 86.5C634.06 88.2917 630.977 89.6667 627.435 90.625C623.935 91.5833 620.102 92.0625 615.935 92.0625ZM676.968 91V23.8125H700.155V36.9375H700.53C702.905 32.3542 706.447 28.75 711.155 26.125C715.863 23.5 721.572 22.1875 728.28 22.1875C737.863 22.1875 745.301 24.7917 750.593 30C755.884 35.2083 758.53 42.5833 758.53 52.125V91H735.343V56.9375C735.343 51.1458 733.947 46.75 731.155 43.75C728.363 40.75 724.238 39.25 718.78 39.25C714.988 39.25 711.697 40.0208 708.905 41.5625C706.113 43.0625 703.947 45.1875 702.405 47.9375C700.905 50.6875 700.155 53.9375 700.155 57.6875V91H676.968ZM807.312 92.0625C796.938 92.0625 789.375 90.2083 784.625 86.5C779.875 82.7917 777.5 76.7917 777.5 68.5V39.5625H764.188V23.8125H777.5V7.5625H800.625V23.8125H820.938V39.5625H800.688V65.5C800.688 69.4167 801.688 72.1875 803.688 73.8125C805.688 75.4375 809.042 76.25 813.75 76.25C815.125 76.25 816.417 76.1875 817.625 76.0625C818.875 75.9375 819.979 75.7917 820.938 75.625V91C819.062 91.2917 816.958 91.5417 814.625 91.75C812.292 91.9583 809.854 92.0625 807.312 92.0625Z" fill="white"/>
</svg>
