<svg width="230" height="48" viewBox="0 0 230 48" fill="none" xmlns="http://www.w3.org/2000/svg">
<path d="M44.5367 16.8649C45.4084 15.9544 46.905 16.2736 47.2213 17.5033C47.7291 19.4758 48 21.546 48 23.6805C47.9996 37.1114 37.3033 47.9994 24.1088 47.9994C15.4152 47.9994 7.80625 43.2725 3.62658 36.2061C3.23539 35.5447 3.36723 34.7023 3.90766 34.1606L16.5076 21.5324C17.1724 20.8661 18.2385 20.8633 18.9067 21.5261L28.5374 31.0782C29.2155 31.7508 30.3008 31.7364 30.9615 31.0462L44.5367 16.8649Z" fill="white"/>
<path d="M3.01609 31.6933C2.36081 32.3667 1.24564 32.1269 0.981445 31.218C-0.560894 25.9118 -0.284049 20.2056 1.80246 15.0523C4.14161 9.27508 8.57571 4.63599 14.185 2.09739C19.7943 -0.441241 26.1484 -0.684605 31.9292 1.41777C37.4214 3.41516 41.552 6.87324 44.317 12.0005C44.5798 12.4879 44.4876 13.0906 44.1079 13.4907L40.0289 17.7911C39.384 18.471 38.2588 18.2531 37.8165 17.4222C35.7213 13.4863 32.3937 10.6178 29.1182 9.42655C25.359 8.05939 21.227 8.21766 17.5793 9.86851C13.9316 11.5194 11.0482 14.5361 9.52705 18.293C9.13842 19.2528 8.32268 21.0696 8.44937 25.5129C8.45978 25.8783 8.32671 26.2355 8.07399 26.4952L3.01609 31.6933Z" fill="white"/>
<path d="M62.4375 34.9997L72.8281 12.4528H78.4844V17.1716H76.5312L68.7656 34.9997H62.4375ZM67.8438 29.8747L69.5625 25.8434H83.4531L85.1562 29.8747H67.8438ZM84.4062 34.9997L76.6406 17.1716V12.4528H80.3438L90.7344 34.9997H84.4062ZM92.7113 34.9997V12.4528H107.102C109.071 12.4528 110.732 12.7445 112.086 13.3278C113.44 13.9007 114.466 14.7289 115.164 15.8122C115.862 16.8851 116.211 18.182 116.211 19.7028V19.7341C116.211 21.3382 115.8 22.7132 114.977 23.8591C114.154 24.9945 112.977 25.8174 111.446 26.3278L117.055 34.9997H110.274L105.508 27.2653C105.466 27.2653 105.42 27.2653 105.368 27.2653C105.326 27.2653 105.279 27.2653 105.227 27.2653H98.7113V34.9997H92.7113ZM98.7113 23.2028H106.555C107.701 23.2028 108.591 22.9216 109.227 22.3591C109.862 21.7862 110.18 20.9945 110.18 19.9841V19.9528C110.18 18.9528 109.852 18.1716 109.196 17.6091C108.539 17.0362 107.644 16.7497 106.508 16.7497H98.7113V23.2028ZM126.923 34.9997V17.0466H118.032V12.4528H141.782V17.0466H132.907V34.9997H126.923ZM144.04 34.9997V12.4528H150.04V21.2653H163.774V12.4528H169.774V34.9997H163.774V25.8747H150.04V34.9997H144.04ZM171.751 34.9997L182.142 12.4528H187.798V17.1716H185.845L178.079 34.9997H171.751ZM177.158 29.8747L178.876 25.8434H192.767L194.47 29.8747H177.158ZM193.72 34.9997L185.954 17.1716V12.4528H189.658L200.048 34.9997H193.72ZM200.619 34.9997L211.009 12.4528H216.666V17.1716H214.712L206.947 34.9997H200.619ZM206.025 29.8747L207.744 25.8434H221.634L223.337 29.8747H206.025ZM222.587 34.9997L214.822 17.1716V12.4528H218.525L228.916 34.9997H222.587Z" fill="white"/>
</svg>
