<svg width="471" height="67" viewBox="0 0 471 67" fill="none" xmlns="http://www.w3.org/2000/svg">
<path d="M62.6072 23.1895C63.8326 21.9375 65.9364 22.3764 66.3811 24.0674C67.095 26.7796 67.4758 29.6261 67.4758 32.5611C67.4752 51.0287 52.4386 65.9999 33.8901 65.9999C21.6689 65.9999 10.9724 59.5004 5.09675 49.7839C4.54683 48.8745 4.73217 47.7162 5.49188 46.9714L23.2046 29.6075C24.1391 28.6913 25.6378 28.6874 26.5772 29.5987L40.1157 42.7331C41.0689 43.6578 42.5946 43.6381 43.5235 42.689L62.6072 23.1895Z" fill="white"/>
<path d="M4.23994 43.5788C3.31876 44.5048 1.75108 44.1751 1.37969 42.9253C-0.788491 35.6291 -0.399309 27.7831 2.53385 20.6972C5.82217 12.7534 12.0555 6.37457 19.9409 2.88394C27.8264 -0.606714 36.7587 -0.941344 44.8853 1.94946C52.6061 4.6959 58.4128 9.45082 62.2998 16.5009C62.6691 17.1711 62.5396 17.9998 62.0058 18.5499L56.2716 24.4631C55.3651 25.3979 53.7833 25.0983 53.1615 23.9559C50.2161 18.5439 45.5382 14.5996 40.9337 12.9617C35.649 11.0818 29.8404 11.2994 24.7125 13.5694C19.5847 15.8393 15.5312 19.9874 13.3929 25.1532C12.8466 26.4729 11.6998 28.971 11.8779 35.0806C11.8925 35.5831 11.7055 36.0742 11.3502 36.4314L4.23994 43.5788Z" fill="white"/>
<path d="M123.665 0L149.969 66.432H131.729L127.313 53.952H101.393L96.9773 66.432H78.7373L105.041 0H123.665ZM121.841 38.784L114.353 17.76L106.865 38.784H121.841Z" fill="white"/>
<path d="M210.047 66.432H190.751L178.463 45.792H170.495V66.432H153.215V0H181.247C198.527 0 208.319 8.448 208.319 23.04V23.136C208.319 33.312 203.615 40.224 195.071 43.584L210.047 66.432ZM181.247 15.552H170.495V30.912H181.247C187.007 30.912 191.039 29.472 191.039 23.136V23.04C191.039 17.184 187.007 15.552 181.247 15.552Z" fill="white"/>
<path d="M207.955 0H262.867V16.608H244.051V66.432H226.771V16.608H207.955V0Z" fill="white"/>
<path d="M284.409 24.864H309.561V0H326.841V66.432H309.561V41.184H284.409V66.432H267.129V0H284.409V24.864Z" fill="white"/>
<path d="M375.024 0L401.328 66.432H383.088L378.672 53.952H352.752L348.336 66.432H330.096L356.4 0H375.024ZM373.2 38.784L365.712 17.76L358.224 38.784H373.2Z" fill="white"/>
<path d="M443.934 0L470.238 66.432H451.998L447.582 53.952H421.662L417.246 66.432H399.006L425.31 0H443.934ZM442.11 38.784L434.622 17.76L427.134 38.784H442.11Z" fill="white"/>
</svg>
