<svg width="68" height="66" viewBox="0 0 68 66" fill="none" xmlns="http://www.w3.org/2000/svg">
<path d="M62.6072 23.1895C63.8326 21.9375 65.9364 22.3764 66.3811 24.0674C67.095 26.7796 67.4758 29.6261 67.4758 32.5611C67.4752 51.0287 52.4386 65.9999 33.8901 65.9999C21.6689 65.9999 10.9724 59.5004 5.09675 49.7839C4.54683 48.8745 4.73217 47.7162 5.49188 46.9714L23.2046 29.6075C24.1391 28.6913 25.6378 28.6874 26.5772 29.5987L40.1157 42.7331C41.0689 43.6578 42.5946 43.6381 43.5235 42.689L62.6072 23.1895Z" fill="white"/>
<path d="M4.23994 43.5788C3.31876 44.5048 1.75108 44.1751 1.37969 42.9253C-0.788491 35.6291 -0.399309 27.7831 2.53385 20.6972C5.82217 12.7534 12.0555 6.37457 19.9409 2.88394C27.8264 -0.606714 36.7587 -0.941344 44.8853 1.94946C52.6061 4.6959 58.4128 9.45082 62.2998 16.5009C62.6691 17.1711 62.5396 17.9998 62.0058 18.5499L56.2716 24.4631C55.3651 25.3979 53.7833 25.0983 53.1615 23.9559C50.2161 18.5439 45.5382 14.5996 40.9337 12.9617C35.649 11.0818 29.8404 11.2994 24.7125 13.5694C19.5847 15.8393 15.5312 19.9874 13.3929 25.1532C12.8466 26.4729 11.6998 28.971 11.8779 35.0806C11.8925 35.5831 11.7055 36.0742 11.3502 36.4314L4.23994 43.5788Z" fill="white"/>
</svg>
