<svg width="356" height="47" viewBox="0 0 356 47" fill="none" xmlns="http://www.w3.org/2000/svg">
<path d="M42.6875 16.811C43.523 15.9573 44.9575 16.2566 45.2606 17.4095C45.7474 19.2588 46.007 21.1996 46.007 23.2007C46.0066 35.7923 35.7544 46 23.1076 46C14.7749 46 7.48187 41.5685 3.47572 34.9436C3.10077 34.3235 3.22715 33.5338 3.74513 33.026L15.822 21.1869C16.4592 20.5622 17.4811 20.5596 18.1215 21.1809L27.3524 30.1362C28.0023 30.7667 29.0426 30.7532 29.6758 30.1061L42.6875 16.811Z" fill="white"/>
<path d="M2.89088 30.7129C2.2628 31.3443 1.19392 31.1195 0.9407 30.2673C-0.537609 25.2927 -0.272257 19.9431 1.72763 15.1118C3.96967 9.69552 8.21969 5.34631 13.5961 2.96633C18.9726 0.58633 25.0628 0.358173 30.6037 2.32918C35.8679 4.20176 39.827 7.44376 42.4772 12.2506C42.7291 12.7076 42.6407 13.2726 42.2768 13.6477L38.3671 17.6794C37.749 18.3168 36.6705 18.1126 36.2466 17.3336C34.2383 13.6436 31.0488 10.9543 27.9094 9.83752C24.3062 8.5558 20.3458 8.70418 16.8495 10.2519C13.3533 11.7996 10.5895 14.6278 9.13154 18.1499C8.75905 19.0498 7.97717 20.753 8.0986 24.9187C8.10858 25.2612 7.98103 25.5961 7.7388 25.8396L2.89088 30.7129Z" fill="white"/>
<path d="M78.64 19.584C76.0373 19.584 73.9467 20.4587 72.368 22.208C70.832 23.9147 70.064 26.304 70.064 29.376C70.064 32.448 70.832 34.8587 72.368 36.608C73.9467 38.3147 76.0373 39.168 78.64 39.168C82.5227 39.168 85.0613 37.504 86.256 34.176C86.384 33.792 86.6827 33.6 87.152 33.6H93.424C93.7227 33.6 93.872 33.728 93.872 33.984C93.872 34.24 93.8507 34.4533 93.808 34.624C93.296 37.824 91.6747 40.5333 88.944 42.752C86.2133 44.9707 82.8213 46.08 78.768 46.08C73.9467 46.08 69.936 44.544 66.736 41.472C63.5787 38.3573 62 34.3253 62 29.376C62 24.4267 63.5787 20.416 66.736 17.344C69.936 14.2293 73.9467 12.672 78.768 12.672C82.8213 12.672 86.2133 13.7813 88.944 16C91.6747 18.2187 93.296 20.928 93.808 24.128C93.8507 24.2987 93.872 24.512 93.872 24.768C93.872 25.024 93.7227 25.152 93.424 25.152H87.152C86.6827 25.152 86.384 24.96 86.256 24.576C85.0613 21.248 82.5227 19.584 78.64 19.584Z" fill="white"/>
<path d="M97.037 44.8V1.28C97.037 0.853333 97.2503 0.639999 97.677 0.639999H104.077C104.504 0.639999 104.717 0.853333 104.717 1.28V44.8C104.717 45.2267 104.504 45.44 104.077 45.44H97.677C97.2503 45.44 97.037 45.2267 97.037 44.8Z" fill="white"/>
<path d="M112.621 41.344C109.378 38.1867 107.757 34.1973 107.757 29.376C107.757 24.5547 109.378 20.5653 112.621 17.408C115.906 14.2507 120.002 12.672 124.909 12.672C129.815 12.672 133.89 14.2507 137.132 17.408C140.418 20.5653 142.061 24.5547 142.061 29.376C142.061 34.1973 140.418 38.1867 137.132 41.344C133.89 44.5013 129.815 46.08 124.909 46.08C120.002 46.08 115.906 44.5013 112.621 41.344ZM118.444 22.272C116.78 24.064 115.949 26.432 115.949 29.376C115.949 32.32 116.78 34.688 118.444 36.48C120.109 38.272 122.263 39.168 124.909 39.168C127.554 39.168 129.709 38.272 131.373 36.48C133.037 34.688 133.868 32.32 133.868 29.376C133.868 26.432 133.037 24.064 131.373 22.272C129.709 20.48 127.554 19.584 124.909 19.584C122.263 19.584 120.109 20.48 118.444 22.272Z" fill="white"/>
<path d="M173.835 13.952V44.8C173.835 45.2267 173.621 45.44 173.195 45.44H166.795C166.368 45.44 166.155 45.2267 166.155 44.8V42.496C163.253 44.8853 160.032 46.08 156.491 46.08C152.992 46.08 150.24 45.12 148.234 43.2C146.272 41.2373 145.29 38.592 145.29 35.264V13.952C145.29 13.5253 145.504 13.312 145.93 13.312H152.33C152.757 13.312 152.97 13.5253 152.97 13.952V32.512C152.97 36.9493 154.805 39.168 158.475 39.168C160.693 39.168 162.528 38.2933 163.979 36.544C165.429 34.752 166.155 32.064 166.155 28.48V13.952C166.155 13.5253 166.368 13.312 166.795 13.312H173.195C173.621 13.312 173.835 13.5253 173.835 13.952Z" fill="white"/>
<path d="M208.751 1.28V44.8C208.751 45.2267 208.538 45.44 208.111 45.44H201.711C201.284 45.44 201.071 45.2267 201.071 44.8V42.816C198.383 44.992 195.311 46.08 191.855 46.08C187.503 46.08 183.983 44.5867 181.295 41.6C178.607 38.5707 177.263 34.496 177.263 29.376C177.263 24.256 178.607 20.2027 181.295 17.216C183.983 14.1867 187.503 12.672 191.855 12.672C195.311 12.672 198.383 13.7387 201.071 15.872V1.28C201.071 0.853333 201.284 0.639999 201.711 0.639999H208.111C208.538 0.639999 208.751 0.853333 208.751 1.28ZM199.279 36.416C200.73 34.5387 201.455 32.192 201.455 29.376C201.455 26.56 200.73 24.2347 199.279 22.4C197.828 20.5227 195.866 19.584 193.391 19.584C190.916 19.584 188.954 20.5227 187.503 22.4C186.052 24.2347 185.327 26.56 185.327 29.376C185.327 32.192 186.052 34.5387 187.503 36.416C188.954 38.2507 190.916 39.168 193.391 39.168C195.866 39.168 197.828 38.2507 199.279 36.416Z" fill="white"/>
<path d="M233.249 20.224H224.417V44.8C224.417 45.2267 224.203 45.44 223.777 45.44H217.376C216.95 45.44 216.736 45.2267 216.736 44.8V20.224H211.617C211.19 20.224 210.977 20.0107 210.977 19.584V13.952C210.977 13.5253 211.19 13.312 211.617 13.312H216.736V10.56C216.736 7.232 217.654 4.65067 219.488 2.816C221.366 0.938667 223.926 0 227.169 0C229.558 0 231.776 0.448001 233.824 1.344C234.166 1.472 234.337 1.83467 234.337 2.432V7.936C234.337 8.27733 234.208 8.448 233.952 8.448C233.824 8.448 233.654 8.40533 233.44 8.32C231.435 7.38133 229.707 6.912 228.257 6.912C225.697 6.912 224.417 8.34133 224.417 11.2V13.312H233.249C233.675 13.312 233.889 13.5253 233.889 13.952V19.584C233.889 20.0107 233.675 20.224 233.249 20.224Z" fill="white"/>
<path d="M238.255 41.344C235.013 38.1867 233.391 34.1973 233.391 29.376C233.391 24.5547 235.013 20.5653 238.255 17.408C241.541 14.2507 245.637 12.672 250.544 12.672C255.45 12.672 259.525 14.2507 262.768 17.408C266.053 20.5653 267.695 24.5547 267.695 29.376C267.695 34.1973 266.053 38.1867 262.768 41.344C259.525 44.5013 255.45 46.08 250.544 46.08C245.637 46.08 241.541 44.5013 238.255 41.344ZM244.079 22.272C242.415 24.064 241.583 26.432 241.583 29.376C241.583 32.32 242.415 34.688 244.079 36.48C245.743 38.272 247.898 39.168 250.544 39.168C253.189 39.168 255.344 38.272 257.008 36.48C258.672 34.688 259.503 32.32 259.503 29.376C259.503 26.432 258.672 24.064 257.008 22.272C255.344 20.48 253.189 19.584 250.544 19.584C247.898 19.584 245.743 20.48 244.079 22.272Z" fill="white"/>
<path d="M292.958 14.848V20.8C292.958 21.2693 292.787 21.504 292.446 21.504C292.361 21.504 292.211 21.4613 291.998 21.376C289.566 20.1813 287.369 19.584 285.406 19.584C283.187 19.584 281.459 20.2453 280.222 21.568C279.027 22.848 278.43 25.0667 278.43 28.224V44.8C278.43 45.2267 278.217 45.44 277.79 45.44H271.39C270.963 45.44 270.75 45.2267 270.75 44.8V13.952C270.75 13.5253 270.963 13.312 271.39 13.312H277.79C278.217 13.312 278.43 13.5253 278.43 13.952V15.68C280.563 13.6747 283.187 12.672 286.302 12.672C288.265 12.672 290.227 13.0133 292.19 13.696C292.702 13.9093 292.958 14.2933 292.958 14.848Z" fill="white"/>
<path d="M309.726 39.168C313.395 39.168 316.019 37.8453 317.598 35.2C317.854 34.816 318.152 34.624 318.493 34.624H325.022C325.32 34.624 325.47 34.7733 325.47 35.072C325.47 35.2427 325.427 35.456 325.342 35.712C322.654 42.624 317.427 46.08 309.661 46.08C304.968 46.08 301.043 44.5227 297.885 41.408C294.771 38.2933 293.214 34.2827 293.214 29.376C293.214 24.512 294.814 20.5227 298.014 17.408C301.214 14.2507 305.118 12.672 309.726 12.672C314.803 12.672 318.835 14.3573 321.822 17.728C324.808 21.0987 326.302 25.216 326.302 30.08V31.168C326.302 31.5947 326.088 31.808 325.661 31.808H301.278C301.619 34.0267 302.536 35.8187 304.03 37.184C305.523 38.5067 307.422 39.168 309.726 39.168ZM309.726 19.584C307.891 19.584 306.227 20.1173 304.734 21.184C303.24 22.208 302.174 23.616 301.534 25.408H318.109C316.829 21.5253 314.035 19.584 309.726 19.584Z" fill="white"/>
<path d="M333.826 13.76L339.458 22.208L345.09 13.76C345.303 13.4613 345.602 13.312 345.986 13.312H353.474C353.773 13.312 353.922 13.4613 353.922 13.76C353.922 13.8453 353.879 13.9733 353.794 14.144L343.874 28.608L354.946 44.608C355.074 44.7787 355.138 44.9493 355.138 45.12C355.138 45.3333 355.01 45.44 354.754 45.44H346.818C346.519 45.44 346.221 45.2267 345.922 44.8L339.458 35.072L332.994 44.8C332.695 45.2267 332.397 45.44 332.098 45.44H324.162C323.906 45.44 323.778 45.3333 323.778 45.12C323.778 44.992 323.842 44.8213 323.97 44.608L334.978 28.608L325.122 14.144C325.037 13.9733 324.994 13.8453 324.994 13.76C324.994 13.4613 325.143 13.312 325.442 13.312H332.93C333.314 13.312 333.613 13.4613 333.826 13.76Z" fill="white"/>
</svg>
