<svg width="356" height="47" viewBox="0 0 356 47" fill="none" xmlns="http://www.w3.org/2000/svg">
<path d="M42.6875 16.811C43.523 15.9573 44.9575 16.2566 45.2606 17.4095C45.7474 19.2588 46.007 21.1996 46.007 23.2007C46.0066 35.7923 35.7544 46 23.1076 46C14.7749 46 7.48187 41.5685 3.47572 34.9436C3.10077 34.3235 3.22715 33.5338 3.74513 33.026L15.822 21.1869C16.4592 20.5622 17.4811 20.5596 18.1215 21.1809L27.3524 30.1362C28.0023 30.7667 29.0426 30.7532 29.6758 30.1061L42.6875 16.811Z" fill="#007AEE"/>
<path d="M2.89088 30.7129C2.2628 31.3443 1.19392 31.1195 0.9407 30.2673C-0.537609 25.2927 -0.272257 19.9431 1.72763 15.1118C3.96967 9.69552 8.21969 5.34631 13.5961 2.96633C18.9726 0.58633 25.0628 0.358173 30.6037 2.32918C35.8679 4.20176 39.827 7.44376 42.4772 12.2506C42.7291 12.7076 42.6407 13.2726 42.2768 13.6477L38.3671 17.6794C37.749 18.3168 36.6705 18.1126 36.2466 17.3336C34.2383 13.6436 31.0488 10.9543 27.9094 9.83752C24.3062 8.5558 20.3458 8.70418 16.8495 10.2519C13.3533 11.7996 10.5895 14.6278 9.13154 18.1499C8.75905 19.0498 7.97717 20.753 8.0986 24.9187C8.10858 25.2612 7.98103 25.5961 7.7388 25.8396L2.89088 30.7129Z" fill="#01C9F8"/>
<path d="M78.9442 20.144C76.3415 20.144 74.2509 21.0187 72.6722 22.768C71.1362 24.4747 70.3682 26.864 70.3682 29.936C70.3682 33.008 71.1362 35.4187 72.6722 37.168C74.2509 38.8747 76.3415 39.728 78.9442 39.728C82.8269 39.728 85.3655 38.064 86.5602 34.736C86.6882 34.352 86.9869 34.16 87.4562 34.16H93.7282C94.0269 34.16 94.1762 34.288 94.1762 34.544C94.1762 34.8 94.1549 35.0133 94.1122 35.184C93.6002 38.384 91.9789 41.0933 89.2482 43.312C86.5175 45.5307 83.1255 46.64 79.0722 46.64C74.2509 46.64 70.2402 45.104 67.0402 42.032C63.8829 38.9173 62.3042 34.8853 62.3042 29.936C62.3042 24.9867 63.8829 20.976 67.0402 17.904C70.2402 14.7893 74.2509 13.232 79.0722 13.232C83.1255 13.232 86.5175 14.3413 89.2482 16.56C91.9789 18.7787 93.6002 21.488 94.1122 24.688C94.1549 24.8587 94.1762 25.072 94.1762 25.328C94.1762 25.584 94.0269 25.712 93.7282 25.712H87.4562C86.9869 25.712 86.6882 25.52 86.5602 25.136C85.3655 21.808 82.8269 20.144 78.9442 20.144Z" fill="black"/>
<path d="M97.3412 45.36V1.84C97.3412 1.41333 97.5545 1.2 97.9812 1.2H104.381C104.808 1.2 105.021 1.41333 105.021 1.84V45.36C105.021 45.7867 104.808 46 104.381 46H97.9812C97.5545 46 97.3412 45.7867 97.3412 45.36Z" fill="black"/>
<path d="M112.925 41.904C109.682 38.7467 108.061 34.7573 108.061 29.936C108.061 25.1147 109.682 21.1253 112.925 17.968C116.21 14.8107 120.306 13.232 125.213 13.232C130.119 13.232 134.194 14.8107 137.437 17.968C140.722 21.1253 142.365 25.1147 142.365 29.936C142.365 34.7573 140.722 38.7467 137.437 41.904C134.194 45.0613 130.119 46.64 125.213 46.64C120.306 46.64 116.21 45.0613 112.925 41.904ZM118.749 22.832C117.085 24.624 116.253 26.992 116.253 29.936C116.253 32.88 117.085 35.248 118.749 37.04C120.413 38.832 122.567 39.728 125.213 39.728C127.858 39.728 130.013 38.832 131.677 37.04C133.341 35.248 134.173 32.88 134.173 29.936C134.173 26.992 133.341 24.624 131.677 22.832C130.013 21.04 127.858 20.144 125.213 20.144C122.567 20.144 120.413 21.04 118.749 22.832Z" fill="black"/>
<path d="M174.139 14.512V45.36C174.139 45.7867 173.925 46 173.499 46H167.099C166.672 46 166.459 45.7867 166.459 45.36V43.056C163.557 45.4453 160.336 46.64 156.795 46.64C153.296 46.64 150.544 45.68 148.539 43.76C146.576 41.7973 145.595 39.152 145.595 35.824V14.512C145.595 14.0853 145.808 13.872 146.235 13.872H152.635C153.061 13.872 153.275 14.0853 153.275 14.512V33.072C153.275 37.5093 155.109 39.728 158.779 39.728C160.997 39.728 162.832 38.8533 164.283 37.104C165.733 35.312 166.459 32.624 166.459 29.04V14.512C166.459 14.0853 166.672 13.872 167.099 13.872H173.499C173.925 13.872 174.139 14.0853 174.139 14.512Z" fill="black"/>
<path d="M209.055 1.84V45.36C209.055 45.7867 208.842 46 208.415 46H202.015C201.589 46 201.375 45.7867 201.375 45.36V43.376C198.687 45.552 195.615 46.64 192.159 46.64C187.807 46.64 184.287 45.1467 181.599 42.16C178.911 39.1307 177.567 35.056 177.567 29.936C177.567 24.816 178.911 20.7627 181.599 17.776C184.287 14.7467 187.807 13.232 192.159 13.232C195.615 13.232 198.687 14.2987 201.375 16.432V1.84C201.375 1.41333 201.589 1.2 202.015 1.2H208.415C208.842 1.2 209.055 1.41333 209.055 1.84ZM199.583 36.976C201.034 35.0987 201.759 32.752 201.759 29.936C201.759 27.12 201.034 24.7947 199.583 22.96C198.133 21.0827 196.17 20.144 193.695 20.144C191.221 20.144 189.258 21.0827 187.807 22.96C186.357 24.7947 185.631 27.12 185.631 29.936C185.631 32.752 186.357 35.0987 187.807 36.976C189.258 38.8107 191.221 39.728 193.695 39.728C196.17 39.728 198.133 38.8107 199.583 36.976Z" fill="black"/>
<path d="M233.553 20.784H224.721V45.36C224.721 45.7867 224.507 46 224.081 46H217.681C217.254 46 217.041 45.7867 217.041 45.36V20.784H211.921C211.494 20.784 211.281 20.5707 211.281 20.144V14.512C211.281 14.0853 211.494 13.872 211.921 13.872H217.041V11.12C217.041 7.792 217.958 5.21067 219.793 3.376C221.67 1.49866 224.23 0.559998 227.473 0.559998C229.862 0.559998 232.081 1.008 234.129 1.904C234.47 2.032 234.641 2.39466 234.641 2.992V8.496C234.641 8.83733 234.513 9.008 234.257 9.008C234.129 9.008 233.958 8.96533 233.745 8.88C231.739 7.94133 230.011 7.472 228.561 7.472C226.001 7.472 224.721 8.90133 224.721 11.76V13.872H233.553C233.979 13.872 234.193 14.0853 234.193 14.512V20.144C234.193 20.5707 233.979 20.784 233.553 20.784Z" fill="black"/>
<path d="M238.56 41.904C235.317 38.7467 233.696 34.7573 233.696 29.936C233.696 25.1147 235.317 21.1253 238.56 17.968C241.845 14.8107 245.941 13.232 250.848 13.232C255.754 13.232 259.829 14.8107 263.072 17.968C266.357 21.1253 268 25.1147 268 29.936C268 34.7573 266.357 38.7467 263.072 41.904C259.829 45.0613 255.754 46.64 250.848 46.64C245.941 46.64 241.845 45.0613 238.56 41.904ZM244.384 22.832C242.72 24.624 241.888 26.992 241.888 29.936C241.888 32.88 242.72 35.248 244.384 37.04C246.048 38.832 248.202 39.728 250.848 39.728C253.493 39.728 255.648 38.832 257.312 37.04C258.976 35.248 259.808 32.88 259.808 29.936C259.808 26.992 258.976 24.624 257.312 22.832C255.648 21.04 253.493 20.144 250.848 20.144C248.202 20.144 246.048 21.04 244.384 22.832Z" fill="black"/>
<path d="M293.262 15.408V21.36C293.262 21.8293 293.092 22.064 292.75 22.064C292.665 22.064 292.516 22.0213 292.302 21.936C289.87 20.7413 287.673 20.144 285.71 20.144C283.492 20.144 281.764 20.8053 280.526 22.128C279.332 23.408 278.734 25.6267 278.734 28.784V45.36C278.734 45.7867 278.521 46 278.094 46H271.694C271.268 46 271.054 45.7867 271.054 45.36V14.512C271.054 14.0853 271.268 13.872 271.694 13.872H278.094C278.521 13.872 278.734 14.0853 278.734 14.512V16.24C280.868 14.2347 283.492 13.232 286.606 13.232C288.569 13.232 290.532 13.5733 292.494 14.256C293.006 14.4693 293.262 14.8533 293.262 15.408Z" fill="black"/>
<path d="M310.03 39.728C313.699 39.728 316.323 38.4053 317.902 35.76C318.158 35.376 318.456 35.184 318.798 35.184H325.326C325.624 35.184 325.774 35.3333 325.774 35.632C325.774 35.8027 325.731 36.016 325.646 36.272C322.958 43.184 317.731 46.64 309.966 46.64C305.272 46.64 301.347 45.0827 298.19 41.968C295.075 38.8533 293.518 34.8427 293.518 29.936C293.518 25.072 295.118 21.0827 298.318 17.968C301.518 14.8107 305.422 13.232 310.03 13.232C315.107 13.232 319.139 14.9173 322.126 18.288C325.112 21.6587 326.606 25.776 326.606 30.64V31.728C326.606 32.1547 326.392 32.368 325.966 32.368H301.582C301.923 34.5867 302.84 36.3787 304.334 37.744C305.827 39.0667 307.726 39.728 310.03 39.728ZM310.03 20.144C308.195 20.144 306.531 20.6773 305.038 21.744C303.544 22.768 302.478 24.176 301.838 25.968H318.414C317.134 22.0853 314.339 20.144 310.03 20.144Z" fill="black"/>
<path d="M334.13 14.32L339.762 22.768L345.394 14.32C345.608 14.0213 345.906 13.872 346.29 13.872H353.778C354.077 13.872 354.226 14.0213 354.226 14.32C354.226 14.4053 354.184 14.5333 354.098 14.704L344.178 29.168L355.25 45.168C355.378 45.3387 355.442 45.5093 355.442 45.68C355.442 45.8933 355.314 46 355.058 46H347.122C346.824 46 346.525 45.7867 346.226 45.36L339.762 35.632L333.298 45.36C333 45.7867 332.701 46 332.402 46H324.466C324.21 46 324.082 45.8933 324.082 45.68C324.082 45.552 324.146 45.3813 324.274 45.168L335.282 29.168L325.426 14.704C325.341 14.5333 325.298 14.4053 325.298 14.32C325.298 14.0213 325.448 13.872 325.746 13.872H333.234C333.618 13.872 333.917 14.0213 334.13 14.32Z" fill="black"/>
</svg>
