<svg width="283" height="156" viewBox="0 0 283 156" fill="none" xmlns="http://www.w3.org/2000/svg">
<path d="M5.35192 151.101L3.18457 147.121V155.578H281.689V70.0146L279.522 84.9384L277.354 52.106H274.645L273.02 65.04L269.768 70.512L267.601 54.5933L260.015 22.2582L257.848 24.7456L252.43 2.85723L250.262 1.8623L245.386 32.2075L242.677 34.1973L240.509 28.2278L237.8 32.7049L235.633 12.309L230.756 12.8065L228.589 8.82677L225.88 26.2379L223.712 8.32931L221.003 13.8014L217.21 5.34454L213.417 17.2836L210.708 11.8115L208.541 27.2329L204.206 24.2481L201.497 30.7151L196.62 53.1009L193.911 47.6288L191.744 51.111H189.035L186.867 60.0653L184.158 61.5577L181.449 67.5273L176.572 56.0857L174.405 51.111L172.238 42.6542L169.529 44.644L164.11 55.5882L161.943 52.106L159.776 56.0857L157.066 55.0907L154.899 57.0806L152.732 52.6034L150.022 57.578L145.146 74.9892L142.979 75.9841L140.269 89.4156H137.56L134.851 91.9029L132.142 87.4258L128.349 86.9283L125.64 87.9232L122.931 76.9791L120.221 79.4664L118.054 76.4816L115.887 80.4613L110.468 99.3648H108.301L106.134 97.8725L103.424 104.339L101.257 90.4105H98.5479L93.6714 73.9943L91.504 72.0044L88.7949 65.04L86.0857 79.4664L83.9183 80.9587H81.2091L79.5836 77.974L76.3326 79.4664L73.6234 88.4207L68.7469 94.3902L66.5795 94.8877L61.703 108.817L59.5356 99.3648H56.8265L54.1173 112.299L51.9499 106.827L47.0734 96.8775L44.3642 107.324L42.1968 110.309L39.4877 107.822L37.3203 112.299L34.6111 109.314L30.2764 91.4054L27.5672 89.9131L24.8581 106.827L22.6907 110.806L17.8142 140.654L15.6468 137.172L12.9376 135.68L10.2285 139.162L5.35192 151.101Z" fill="url(#paint0_linear_346_490)"/>
<path d="M281.689 70.0146L279.522 84.9384L277.354 52.106H274.645L273.02 65.04L269.768 70.512L267.601 54.5933L260.015 22.2582L257.848 24.7456L252.43 2.85723L250.262 1.8623L245.386 32.2075L242.677 34.1973L240.509 28.2278L237.8 32.7049L235.633 12.309L230.756 12.8065L228.589 8.82677L225.88 26.2379L223.712 8.32931L221.003 13.8014L217.21 5.34454L213.417 17.2836L210.708 11.8115L208.541 27.2329L204.206 24.2481L201.497 30.7151L196.62 53.1009L193.911 47.6288L191.744 51.111H189.035L186.867 60.0653L184.158 61.5577L181.449 67.5273L176.572 56.0857L174.405 51.111L172.238 42.6542L169.529 44.644L164.11 55.5882L161.943 52.106L159.776 56.0857L157.066 55.0907L154.899 57.0806L152.732 52.6034L150.022 57.578L145.146 74.9892L142.979 75.9841L140.269 89.4156H137.56L134.851 91.9029L132.142 87.4258L128.349 86.9283L125.64 87.9232L122.931 76.9791L120.221 79.4664L118.054 76.4816L115.887 80.4613L110.468 99.3648H108.301L106.134 97.8725L103.424 104.339L101.257 90.4105H98.5479L93.6714 73.9943L91.504 72.0044L88.7949 65.04L86.0857 79.4664L83.9183 80.9587H81.2091L79.5836 77.974L76.3326 79.4664L73.6234 88.4207L68.7469 94.3902L66.5795 94.8877L61.703 108.817L59.5356 99.3648H56.8265L54.1173 112.299L51.9499 106.827L47.0734 96.8775L44.3642 107.324L42.1968 110.309L39.4877 107.822L37.3203 112.299L34.6111 109.314L30.2764 91.4054L27.5672 89.9131L24.8581 106.827L22.6907 110.806L17.8142 140.654L15.6468 137.172L12.9376 135.68L10.2285 139.162L5.35192 151.101L3.18457 147.121L1 151.101" stroke="#007AEE" stroke-width="2"/>
<circle cx="61.5" cy="113.5" r="4.5" fill="#2AD870" fill-opacity="0.1"/>
<circle cx="103.5" cy="106.5" r="4.5" fill="#2AD870" fill-opacity="0.1"/>
<circle cx="181.5" cy="69.5" r="4.5" fill="#2AD870" fill-opacity="0.1"/>
<circle cx="88.5" cy="62.5" r="4.5" fill="#FF005C" fill-opacity="0.1"/>
<circle cx="172.5" cy="41.5" r="4.5" fill="#FF005C" fill-opacity="0.1"/>
<circle cx="224.5" cy="5.5" r="4.5" fill="#FF005C" fill-opacity="0.1"/>
<circle cx="61.5" cy="113.5" r="1.5" fill="#2AD870"/>
<circle cx="103.5" cy="106.5" r="1.5" fill="#2AD870"/>
<circle cx="181.5" cy="69.5" r="1.5" fill="#2AD870"/>
<circle cx="88.5" cy="62.5" r="1.5" fill="#FF005C"/>
<circle cx="172.5" cy="41.5" r="1.5" fill="#FF005C"/>
<circle cx="224.5" cy="5.5" r="1.5" fill="#FF005C"/>
<defs>
<linearGradient id="paint0_linear_346_490" x1="142.437" y1="1.8623" x2="142.437" y2="155.578" gradientUnits="userSpaceOnUse">
<stop stop-color="#0A84FF" stop-opacity="0.5"/>
<stop offset="1" stop-color="#0A84FF" stop-opacity="0"/>
</linearGradient>
</defs>
</svg>
