<svg width="384" height="65" viewBox="0 0 384 65" fill="none" xmlns="http://www.w3.org/2000/svg">
<path d="M20.8253 64.8938C14.4221 64.8938 9.33549 62.889 5.56539 58.8796C1.85513 54.8103 0 49.4843 0 42.9016C0 36.3189 1.85513 31.0228 5.56539 27.0133C9.33549 22.944 14.4221 20.9094 20.8253 20.9094C26.5702 20.9094 31.1781 22.3755 34.649 25.3078C38.1797 28.1803 40.1845 32.0401 40.6632 36.8874H30.8789C29.8017 32.0401 26.4505 29.6165 20.8253 29.6165C17.3544 29.6165 14.6316 30.7834 12.6568 33.1173C10.7418 35.3913 9.78431 38.6527 9.78431 42.9016C9.78431 47.1504 10.7418 50.4418 12.6568 52.7756C14.6316 55.0496 17.3544 56.1866 20.8253 56.1866C26.3907 56.1866 29.7419 53.9126 30.8789 49.3646H40.6632C40.1845 54.0922 38.1797 57.8622 34.649 60.6749C31.1781 63.4875 26.5702 64.8938 20.8253 64.8938Z" fill="black"/>
<path d="M43.8442 63.8166V0.981789H53.6285V63.8166H43.8442Z" fill="black"/>
<path d="M94.9222 58.7C90.9726 62.8292 85.6167 64.8938 78.8544 64.8938C72.0922 64.8938 66.7063 62.8292 62.6968 58.7C58.7472 54.5111 56.7724 49.2449 56.7724 42.9016C56.7724 36.5583 58.7472 31.322 62.6968 27.1929C66.7063 23.0039 72.0922 20.9094 78.8544 20.9094C85.6167 20.9094 90.9726 23.0039 94.9222 27.1929C98.9317 31.322 100.936 36.5583 100.936 42.9016C100.936 49.2449 98.9317 54.5111 94.9222 58.7ZM69.7882 52.5063C72.0024 54.9599 75.0245 56.1866 78.8544 56.1866C82.6844 56.1866 85.6765 54.9599 87.8308 52.5063C90.045 50.0528 91.1521 46.8512 91.1521 42.9016C91.1521 38.952 90.045 35.7504 87.8308 33.2968C85.6765 30.8433 82.6844 29.6165 78.8544 29.6165C75.0245 29.6165 72.0024 30.8433 69.7882 33.2968C67.6339 35.7504 66.5567 38.952 66.5567 42.9016C66.5567 46.8512 67.6339 50.0528 69.7882 52.5063Z" fill="black"/>
<path d="M119.116 64.8938C114.388 64.8938 110.618 63.4875 107.805 60.6749C104.993 57.8622 103.587 53.7331 103.587 48.2874V21.9866H113.371V45.8638C113.371 49.3945 114.029 52.0575 115.346 53.8528C116.662 55.6481 118.846 56.5457 121.898 56.5457C125.429 56.5457 128.002 55.5583 129.618 53.5835C131.234 51.5488 132.042 48.8858 132.042 45.5945V21.9866H141.826V63.8166H132.042V57.9819C129.469 62.5898 125.16 64.8938 119.116 64.8938Z" fill="black"/>
<path d="M178.858 0.981789H188.642V63.8166H178.858V58.1615C177.661 60.1961 175.776 61.8418 173.203 63.0985C170.69 64.2953 168.116 64.8938 165.483 64.8938C158.96 64.8938 153.904 62.8292 150.313 58.7C146.723 54.5709 144.927 49.3047 144.927 42.9016C144.927 36.5583 146.812 31.322 150.582 27.1929C154.352 23.0039 159.409 20.9094 165.753 20.9094C168.565 20.9094 171.138 21.5078 173.472 22.7047C175.806 23.9015 177.601 25.5472 178.858 27.6417V0.981789ZM166.919 56.1866C170.929 56.1866 173.981 54.93 176.075 52.4166C178.23 49.9032 179.307 46.7315 179.307 42.9016C179.307 39.0716 178.23 35.9 176.075 33.3866C173.981 30.8732 170.929 29.6165 166.919 29.6165C163.149 29.6165 160.157 30.8732 157.943 33.3866C155.789 35.8401 154.712 39.0118 154.712 42.9016C154.712 46.7914 155.789 49.9929 157.943 52.5063C160.157 54.9599 163.149 56.1866 166.919 56.1866Z" fill="black"/>
<path d="M190.071 30.7687V20.5563H197.872V16.7869C197.872 12.8422 198.398 9.7595 199.45 7.53877C200.502 5.31805 201.832 3.6379 203.439 2.49831C205.046 1.35873 206.799 0.657451 208.698 0.394471C210.627 0.13149 212.468 0 214.221 0C215.828 0 217.26 0.11688 218.516 0.350641C219.773 0.584401 220.825 0.847381 221.672 1.13958V11.0452C220.942 10.8699 220.255 10.7384 219.612 10.6507C218.999 10.5338 218.268 10.4754 217.421 10.4754C216.632 10.4754 215.887 10.5338 215.185 10.6507C214.484 10.7384 213.856 10.9721 213.301 11.352C212.775 11.7319 212.336 12.287 211.986 13.0175C211.664 13.7188 211.504 14.6977 211.504 15.9541V20.5563H221.672V30.7687H211.591V63.8166H197.872V30.7687H190.071Z" fill="#1A6EFF"/>
<path d="M218.457 42.1645C218.457 39.0672 218.997 36.1452 220.079 33.3985C221.189 30.6518 222.781 28.2412 224.856 26.1666C226.931 24.0919 229.444 22.441 232.395 21.2138C235.346 19.9865 238.677 19.3729 242.388 19.3729C246.157 19.3729 249.518 19.9865 252.469 21.2138C255.449 22.441 257.962 24.0919 260.008 26.1666C262.082 28.2412 263.675 30.6518 264.785 33.3985C265.896 36.1452 266.451 39.0672 266.451 42.1645C266.451 45.2619 265.896 48.1985 264.785 50.9744C263.675 53.7211 262.082 56.1317 260.008 58.2063C257.962 60.281 255.449 61.9319 252.469 63.1591C249.518 64.3864 246.157 65 242.388 65C238.677 65 235.346 64.3864 232.395 63.1591C229.444 61.9319 226.931 60.281 224.856 58.2063C222.781 56.1317 221.189 53.7211 220.079 50.9744C218.997 48.2277 218.457 45.2911 218.457 42.1645ZM232.176 42.1645C232.176 43.7132 232.409 45.1596 232.877 46.5037C233.374 47.8186 234.06 48.9874 234.937 50.0101C235.843 51.0036 236.924 51.7925 238.18 52.3769C239.437 52.9321 240.839 53.2097 242.388 53.2097C243.937 53.2097 245.354 52.9321 246.64 52.3769C247.955 51.7925 249.05 51.0036 249.927 50.0101C250.833 48.9874 251.534 47.8186 252.031 46.5037C252.557 45.1888 252.82 43.7424 252.82 42.1645C252.82 40.6743 252.557 39.2571 252.031 37.913C251.534 36.5689 250.833 35.4001 249.927 34.4066C249.05 33.4131 247.969 32.6242 246.683 32.0398C245.398 31.4554 243.966 31.1632 242.388 31.1632C240.839 31.1632 239.437 31.4554 238.18 32.0398C236.924 32.6242 235.843 33.4131 234.937 34.4066C234.06 35.4001 233.374 36.5689 232.877 37.913C232.409 39.2571 232.176 40.6743 232.176 42.1645Z" fill="#1A6EFF"/>
<path d="M268.846 63.8166V20.5563H282.565V27.5691C283.587 25.5237 285.282 23.7267 287.649 22.178C290.016 20.6001 292.733 19.8112 295.801 19.8112C297.408 19.8112 298.782 20.0596 299.921 20.5563V33.0479C298.957 32.8141 298.139 32.6534 297.467 32.5657C296.824 32.4489 296.021 32.3904 295.056 32.3904C291.287 32.3904 288.263 33.5008 285.983 35.7215C283.704 37.9422 282.565 41.6824 282.565 46.942V63.8166H268.846Z" fill="#1A6EFF"/>
<path d="M296.355 42.1645C296.355 38.9795 296.837 36.0137 297.802 33.267C298.795 30.5203 300.256 28.1243 302.185 26.0789C304.143 24.0043 306.539 22.3679 309.373 21.1699C312.237 19.9719 315.553 19.3729 319.322 19.3729C322.741 19.3729 325.809 19.9135 328.527 20.9946C331.244 22.0757 333.567 23.5221 335.496 25.3338C337.453 27.1162 338.958 29.2054 340.01 31.6015C341.062 33.9975 341.588 36.5105 341.588 39.1403C341.588 40.0461 341.574 41.0103 341.544 42.033C341.515 43.0265 341.384 44.1807 341.15 45.4956H309.987C310.045 46.8105 310.235 48.0524 310.556 49.2212C310.907 50.39 311.448 51.4127 312.178 52.2893C312.938 53.1659 313.917 53.8526 315.115 54.3493C316.313 54.846 317.803 55.0944 319.585 55.0944C321.981 55.0944 323.793 54.6269 325.02 53.6918C326.248 52.7276 327.095 51.5588 327.562 50.1854H341.062C340.77 52.2308 340.069 54.1448 338.958 55.9272C337.848 57.7096 336.372 59.2729 334.531 60.617C332.72 61.9611 330.572 63.0276 328.088 63.8166C325.605 64.6055 322.8 65 319.673 65C315.904 65 312.558 64.4448 309.636 63.3345C306.743 62.2241 304.303 60.6608 302.316 58.6446C300.359 56.5992 298.868 54.1886 297.846 51.4127C296.852 48.6076 296.355 45.5248 296.355 42.1645ZM309.987 37.6062H328.132C328.132 34.8011 327.299 32.595 325.634 30.9879C323.998 29.3515 321.865 28.5334 319.235 28.5334C316.546 28.5334 314.326 29.3223 312.573 30.9002C310.849 32.4489 309.987 34.6842 309.987 37.6062Z" fill="#1A6EFF"/>
<path d="M338.022 63.8166L352.924 41.9892L338.285 20.5563H354.195L360.989 32.7411L367.827 20.5563H383.693L369.185 41.9892L384 63.8166H368.09L360.989 51.2374L353.932 63.8166H338.022Z" fill="#1A6EFF"/>
</svg>
