<svg width="46" height="45" viewBox="0 0 46 45" fill="none" xmlns="http://www.w3.org/2000/svg">
<path d="M42.6875 15.811C43.523 14.9574 44.9575 15.2566 45.2606 16.4096C45.7474 18.2588 46.007 20.1996 46.007 22.2007C46.0066 34.7923 35.7544 45 23.1076 45C14.7749 45 7.48187 40.5685 3.47572 33.9436C3.10077 33.3235 3.22715 32.5338 3.74513 32.026L15.822 20.1869C16.4592 19.5622 17.4811 19.5596 18.1215 20.1809L27.3524 29.1362C28.0023 29.7667 29.0426 29.7533 29.6758 29.1062L42.6875 15.811Z" fill="white"/>
<path d="M2.89088 29.7129C2.2628 30.3443 1.19392 30.1195 0.9407 29.2673C-0.537609 24.2927 -0.272257 18.9431 1.72763 14.1118C3.96967 8.69552 8.21969 4.34631 13.5961 1.96633C18.9726 -0.41367 25.0628 -0.641827 30.6037 1.32918C35.8679 3.20176 39.827 6.44376 42.4772 11.2506C42.7291 11.7076 42.6407 12.2726 42.2768 12.6477L38.3671 16.6794C37.749 17.3168 36.6705 17.1126 36.2466 16.3336C34.2383 12.6436 31.0488 9.9543 27.9094 8.83752C24.3062 7.5558 20.3458 7.70418 16.8495 9.25187C13.3533 10.7996 10.5895 13.6278 9.13154 17.1499C8.75905 18.0498 7.97717 19.753 8.0986 23.9187C8.10858 24.2612 7.98103 24.5961 7.7388 24.8396L2.89088 29.7129Z" fill="white"/>
</svg>
