<svg width="800" height="800" viewBox="0 0 800 800" fill="none" xmlns="http://www.w3.org/2000/svg">
<g filter="url(#filter0_f_353_116)">
<path d="M400 400H560V560H400V400Z" fill="url(#paint0_linear_353_116)"/>
</g>
<g filter="url(#filter1_f_353_116)">
<path d="M240 400H400V560H240V400Z" fill="url(#paint1_linear_353_116)"/>
</g>
<g filter="url(#filter2_f_353_116)">
<path d="M400 240H560V400H400V240Z" fill="url(#paint2_linear_353_116)"/>
</g>
<g filter="url(#filter3_f_353_116)">
<path d="M240 240H400V400H240V240Z" fill="url(#paint3_linear_353_116)"/>
</g>
<rect x="339" y="339" width="123" height="123" rx="37" fill="url(#paint4_linear_353_116)" stroke="url(#paint5_linear_353_116)" stroke-width="3"/>
<path d="M367.179 402.099C367.061 401.716 366.897 401.373 366.689 401.07C366.485 400.762 366.239 400.499 365.95 400.281C365.666 400.063 365.339 399.9 364.97 399.791C364.601 399.678 364.198 399.621 363.763 399.621C362.982 399.621 362.286 399.817 361.675 400.21C361.064 400.603 360.583 401.181 360.233 401.943C359.887 402.701 359.714 403.624 359.714 404.713C359.714 405.812 359.887 406.742 360.233 407.504C360.579 408.267 361.059 408.847 361.675 409.244C362.29 409.637 363.005 409.834 363.82 409.834C364.558 409.834 365.197 409.692 365.737 409.408C366.282 409.124 366.701 408.721 366.994 408.2C367.288 407.675 367.435 407.059 367.435 406.354L368.031 406.446H364.082V404.386H369.984V406.134C369.984 407.379 369.719 408.456 369.189 409.365C368.659 410.274 367.929 410.975 367.001 411.467C366.073 411.955 365.008 412.199 363.805 412.199C362.465 412.199 361.289 411.898 360.276 411.297C359.267 410.691 358.479 409.831 357.911 408.719C357.347 407.601 357.065 406.276 357.065 404.741C357.065 403.567 357.231 402.518 357.562 401.595C357.899 400.672 358.367 399.888 358.969 399.244C359.57 398.596 360.276 398.103 361.085 397.767C361.895 397.426 362.776 397.256 363.727 397.256C364.532 397.256 365.283 397.374 365.979 397.611C366.675 397.843 367.293 398.174 367.832 398.605C368.377 399.036 368.824 399.547 369.175 400.139C369.525 400.731 369.755 401.384 369.864 402.099H367.179ZM376.048 412.213C374.954 412.213 374.01 411.986 373.214 411.531C372.424 411.072 371.815 410.423 371.389 409.585C370.963 408.742 370.75 407.75 370.75 406.609C370.75 405.487 370.963 404.502 371.389 403.655C371.82 402.803 372.421 402.14 373.193 401.666C373.965 401.188 374.872 400.949 375.913 400.949C376.586 400.949 377.22 401.058 377.817 401.276C378.418 401.489 378.948 401.82 379.408 402.27C379.872 402.72 380.236 403.293 380.501 403.989C380.767 404.68 380.899 405.504 380.899 406.46V407.249H371.957V405.516H378.435C378.43 405.023 378.323 404.585 378.115 404.202C377.907 403.813 377.615 403.508 377.241 403.286C376.872 403.063 376.441 402.952 375.949 402.952C375.423 402.952 374.962 403.08 374.564 403.335C374.166 403.586 373.856 403.918 373.633 404.33C373.416 404.737 373.304 405.184 373.3 405.672V407.185C373.3 407.819 373.416 408.364 373.648 408.818C373.88 409.268 374.204 409.614 374.621 409.855C375.037 410.092 375.525 410.21 376.084 410.21C376.458 410.21 376.796 410.158 377.099 410.054C377.402 409.945 377.665 409.786 377.888 409.578C378.11 409.37 378.278 409.112 378.392 408.804L380.793 409.074C380.641 409.708 380.352 410.262 379.926 410.736C379.505 411.205 378.965 411.569 378.307 411.83C377.649 412.085 376.896 412.213 376.048 412.213ZM384.445 405.608V412H381.874V401.091H384.332V402.945H384.459C384.71 402.334 385.11 401.848 385.66 401.489C386.214 401.129 386.898 400.949 387.712 400.949C388.465 400.949 389.121 401.11 389.68 401.432C390.243 401.754 390.679 402.22 390.986 402.831C391.299 403.442 391.453 404.183 391.448 405.054V412H388.877V405.452C388.877 404.723 388.688 404.152 388.309 403.74C387.935 403.328 387.416 403.122 386.753 403.122C386.304 403.122 385.904 403.222 385.553 403.42C385.207 403.615 384.935 403.896 384.736 404.266C384.542 404.635 384.445 405.082 384.445 405.608ZM400.88 401.453C400.814 400.833 400.534 400.35 400.042 400.004C399.554 399.659 398.92 399.486 398.139 399.486C397.589 399.486 397.118 399.569 396.725 399.734C396.332 399.9 396.032 400.125 395.823 400.409C395.615 400.693 395.508 401.018 395.504 401.382C395.504 401.685 395.572 401.948 395.71 402.17C395.852 402.393 396.043 402.582 396.285 402.739C396.526 402.89 396.794 403.018 397.088 403.122C397.381 403.226 397.677 403.314 397.975 403.385L399.339 403.726C399.888 403.854 400.416 404.027 400.923 404.244C401.434 404.462 401.891 404.737 402.293 405.068C402.701 405.4 403.023 405.8 403.259 406.268C403.496 406.737 403.614 407.286 403.614 407.916C403.614 408.768 403.397 409.519 402.961 410.168C402.525 410.812 401.896 411.316 401.072 411.68C400.253 412.04 399.261 412.22 398.096 412.22C396.964 412.22 395.982 412.045 395.149 411.695C394.32 411.344 393.671 410.833 393.203 410.161C392.739 409.488 392.488 408.669 392.45 407.703H395.042C395.08 408.21 395.236 408.631 395.511 408.967C395.785 409.304 396.143 409.554 396.583 409.72C397.028 409.886 397.525 409.969 398.075 409.969C398.648 409.969 399.15 409.884 399.58 409.713C400.016 409.538 400.357 409.296 400.603 408.989C400.849 408.676 400.975 408.312 400.98 407.895C400.975 407.516 400.864 407.204 400.646 406.957C400.428 406.706 400.123 406.498 399.73 406.332C399.341 406.162 398.887 406.01 398.366 405.878L396.711 405.452C395.513 405.144 394.566 404.678 393.87 404.053C393.179 403.423 392.833 402.587 392.833 401.545C392.833 400.688 393.065 399.938 393.529 399.294C393.998 398.65 394.635 398.151 395.44 397.795C396.245 397.436 397.156 397.256 398.174 397.256C399.206 397.256 400.111 397.436 400.887 397.795C401.668 398.151 402.282 398.645 402.727 399.28C403.172 399.91 403.401 400.634 403.416 401.453H400.88ZM404.65 416.091V401.091H407.178V402.895H407.327C407.46 402.63 407.647 402.348 407.889 402.05C408.13 401.747 408.457 401.489 408.869 401.276C409.281 401.058 409.806 400.949 410.445 400.949C411.288 400.949 412.048 401.164 412.725 401.595C413.407 402.021 413.947 402.653 414.345 403.491C414.747 404.325 414.948 405.348 414.948 406.56C414.948 407.758 414.752 408.776 414.359 409.614C413.966 410.452 413.431 411.091 412.754 411.531C412.077 411.972 411.309 412.192 410.452 412.192C409.827 412.192 409.309 412.088 408.897 411.879C408.485 411.671 408.154 411.42 407.903 411.126C407.657 410.828 407.465 410.546 407.327 410.281H407.221V416.091H404.65ZM407.171 406.545C407.171 407.251 407.271 407.869 407.47 408.399C407.673 408.929 407.964 409.344 408.343 409.642C408.727 409.936 409.191 410.082 409.735 410.082C410.303 410.082 410.779 409.931 411.163 409.628C411.546 409.32 411.835 408.901 412.029 408.371C412.228 407.836 412.327 407.227 412.327 406.545C412.327 405.868 412.23 405.267 412.036 404.741C411.842 404.216 411.553 403.804 411.17 403.506C410.786 403.207 410.308 403.058 409.735 403.058C409.186 403.058 408.72 403.203 408.336 403.491C407.952 403.78 407.661 404.185 407.462 404.706C407.268 405.227 407.171 405.84 407.171 406.545ZM419.089 412.22C418.398 412.22 417.775 412.097 417.221 411.851C416.672 411.6 416.236 411.231 415.914 410.743C415.597 410.255 415.439 409.654 415.439 408.939C415.439 408.323 415.552 407.814 415.779 407.412C416.007 407.009 416.317 406.688 416.71 406.446C417.103 406.205 417.546 406.022 418.038 405.899C418.535 405.771 419.049 405.679 419.579 405.622C420.218 405.556 420.737 405.497 421.135 405.445C421.532 405.388 421.821 405.303 422.001 405.189C422.186 405.071 422.278 404.888 422.278 404.642V404.599C422.278 404.064 422.119 403.65 421.802 403.357C421.485 403.063 421.028 402.916 420.431 402.916C419.802 402.916 419.302 403.054 418.933 403.328C418.568 403.603 418.322 403.927 418.194 404.301L415.794 403.96C415.983 403.297 416.296 402.743 416.731 402.298C417.167 401.848 417.699 401.512 418.329 401.29C418.959 401.062 419.655 400.949 420.417 400.949C420.943 400.949 421.466 401.01 421.987 401.134C422.508 401.257 422.984 401.46 423.414 401.744C423.845 402.024 424.191 402.405 424.451 402.888C424.717 403.371 424.849 403.974 424.849 404.699V412H422.377V410.501H422.292C422.136 410.804 421.916 411.089 421.632 411.354C421.352 411.614 421 411.825 420.574 411.986C420.152 412.142 419.657 412.22 419.089 412.22ZM419.757 410.331C420.273 410.331 420.72 410.229 421.099 410.026C421.478 409.817 421.769 409.543 421.973 409.202C422.181 408.861 422.285 408.489 422.285 408.087V406.801C422.205 406.867 422.067 406.929 421.873 406.986C421.684 407.043 421.471 407.092 421.234 407.135C420.997 407.178 420.763 407.215 420.531 407.249C420.299 407.282 420.098 407.31 419.927 407.334C419.544 407.386 419.2 407.471 418.897 407.589C418.594 407.708 418.355 407.874 418.18 408.087C418.005 408.295 417.917 408.565 417.917 408.896C417.917 409.37 418.09 409.727 418.436 409.969C418.781 410.21 419.222 410.331 419.757 410.331ZM426.234 412V401.091H428.727V402.909H428.841C429.04 402.279 429.381 401.794 429.864 401.453C430.351 401.107 430.908 400.935 431.533 400.935C431.675 400.935 431.833 400.942 432.008 400.956C432.188 400.965 432.338 400.982 432.456 401.006V403.371C432.347 403.333 432.174 403.3 431.937 403.271C431.705 403.238 431.481 403.222 431.263 403.222C430.794 403.222 430.373 403.323 429.999 403.527C429.629 403.726 429.338 404.003 429.125 404.358C428.912 404.713 428.805 405.123 428.805 405.587V412H426.234ZM435.308 408.577L435.301 405.473H435.713L439.633 401.091H442.637L437.815 406.46H437.282L435.308 408.577ZM432.964 412V397.455H435.535V412H432.964ZM439.811 412L436.259 407.036L437.992 405.224L442.886 412H439.811Z" fill="url(#paint6_linear_353_116)"/>
<path d="M383.545 417.364H386.125L389.579 425.795H389.716L393.17 417.364H395.75V429H393.727V421.006H393.619L390.403 428.966H388.892L385.676 420.989H385.568V429H383.545V417.364ZM398.58 429H396.33L400.426 417.364H403.028L407.131 429H404.881L401.773 419.75H401.682L398.58 429ZM398.653 424.438H404.79V426.131H398.653V424.438ZM409.465 417.364L412.027 421.625H412.118L414.692 417.364H417.095L413.51 423.182L417.152 429H414.709L412.118 424.767H412.027L409.436 429H407.004L410.681 423.182L407.05 417.364H409.465Z" fill="url(#paint7_linear_353_116)"/>
<path d="M409.755 376.081C410.181 375.645 410.912 375.798 411.066 376.387C411.314 377.332 411.447 378.324 411.447 379.347C411.446 385.783 406.221 391 399.776 391C395.53 391 391.813 388.735 389.771 385.349C389.58 385.032 389.644 384.628 389.908 384.369L396.063 378.318C396.388 377.999 396.909 377.997 397.235 378.315L401.939 382.892C402.271 383.214 402.801 383.207 403.124 382.877L409.755 376.081Z" fill="url(#paint8_linear_353_116)"/>
<path d="M389.473 383.187C389.153 383.509 388.608 383.394 388.479 382.959C387.726 380.416 387.861 377.682 388.88 375.213C390.023 372.444 392.189 370.221 394.929 369.005C397.669 367.789 400.773 367.672 403.597 368.679C406.28 369.636 408.297 371.293 409.648 373.75C409.777 373.984 409.732 374.273 409.546 374.464L407.554 376.525C407.238 376.851 406.689 376.746 406.473 376.348C405.449 374.462 403.824 373.088 402.224 372.517C400.387 371.862 398.369 371.938 396.587 372.729C394.805 373.52 393.397 374.965 392.654 376.766C392.464 377.225 392.066 378.096 392.127 380.225C392.132 380.4 392.067 380.571 391.944 380.696L389.473 383.187Z" fill="url(#paint9_linear_353_116)"/>
<defs>
<filter id="filter0_f_353_116" x="160" y="160" width="640" height="640" filterUnits="userSpaceOnUse" color-interpolation-filters="sRGB">
<feFlood flood-opacity="0" result="BackgroundImageFix"/>
<feBlend mode="normal" in="SourceGraphic" in2="BackgroundImageFix" result="shape"/>
<feGaussianBlur stdDeviation="120" result="effect1_foregroundBlur_353_116"/>
</filter>
<filter id="filter1_f_353_116" x="0" y="160" width="640" height="640" filterUnits="userSpaceOnUse" color-interpolation-filters="sRGB">
<feFlood flood-opacity="0" result="BackgroundImageFix"/>
<feBlend mode="normal" in="SourceGraphic" in2="BackgroundImageFix" result="shape"/>
<feGaussianBlur stdDeviation="120" result="effect1_foregroundBlur_353_116"/>
</filter>
<filter id="filter2_f_353_116" x="160" y="0" width="640" height="640" filterUnits="userSpaceOnUse" color-interpolation-filters="sRGB">
<feFlood flood-opacity="0" result="BackgroundImageFix"/>
<feBlend mode="normal" in="SourceGraphic" in2="BackgroundImageFix" result="shape"/>
<feGaussianBlur stdDeviation="120" result="effect1_foregroundBlur_353_116"/>
</filter>
<filter id="filter3_f_353_116" x="0" y="0" width="640" height="640" filterUnits="userSpaceOnUse" color-interpolation-filters="sRGB">
<feFlood flood-opacity="0" result="BackgroundImageFix"/>
<feBlend mode="normal" in="SourceGraphic" in2="BackgroundImageFix" result="shape"/>
<feGaussianBlur stdDeviation="120" result="effect1_foregroundBlur_353_116"/>
</filter>
<linearGradient id="paint0_linear_353_116" x1="427.436" y1="392.051" x2="429.231" y2="552.564" gradientUnits="userSpaceOnUse">
<stop stop-color="#FFF730"/>
<stop offset="1" stop-color="#A6A46A"/>
</linearGradient>
<linearGradient id="paint1_linear_353_116" x1="267.436" y1="392.051" x2="269.231" y2="552.564" gradientUnits="userSpaceOnUse">
<stop stop-color="#308FFF"/>
<stop offset="1" stop-color="#6A86A6"/>
</linearGradient>
<linearGradient id="paint2_linear_353_116" x1="427.436" y1="232.051" x2="429.231" y2="392.564" gradientUnits="userSpaceOnUse">
<stop stop-color="#FF30D1"/>
<stop offset="1" stop-color="#A66A99"/>
</linearGradient>
<linearGradient id="paint3_linear_353_116" x1="267.436" y1="232.051" x2="269.231" y2="392.564" gradientUnits="userSpaceOnUse">
<stop stop-color="#7830FF"/>
<stop offset="1" stop-color="#816AA6"/>
</linearGradient>
<linearGradient id="paint4_linear_353_116" x1="352" y1="344" x2="451.5" y2="460" gradientUnits="userSpaceOnUse">
<stop/>
<stop offset="1" stop-color="#1E1B39"/>
</linearGradient>
<linearGradient id="paint5_linear_353_116" x1="400.5" y1="339" x2="400.5" y2="462" gradientUnits="userSpaceOnUse">
<stop stop-color="white"/>
<stop offset="1" stop-color="#767676"/>
</linearGradient>
<linearGradient id="paint6_linear_353_116" x1="356" y1="412" x2="444" y2="399" gradientUnits="userSpaceOnUse">
<stop stop-color="white"/>
<stop offset="1" stop-color="#A1A1A1"/>
</linearGradient>
<linearGradient id="paint7_linear_353_116" x1="400" y1="414" x2="400" y2="433" gradientUnits="userSpaceOnUse">
<stop stop-color="#7550FF"/>
<stop offset="1" stop-color="white"/>
</linearGradient>
<linearGradient id="paint8_linear_353_116" x1="402" y1="367" x2="396.5" y2="391" gradientUnits="userSpaceOnUse">
<stop stop-color="white"/>
<stop offset="1" stop-color="#999999"/>
</linearGradient>
<linearGradient id="paint9_linear_353_116" x1="402" y1="367" x2="396.5" y2="391" gradientUnits="userSpaceOnUse">
<stop stop-color="white"/>
<stop offset="1" stop-color="#999999"/>
</linearGradient>
</defs>
</svg>
